<svg width="49" height="53" viewBox="0 0 49 53" fill="none" xmlns="http://www.w3.org/2000/svg">
<path d="M6.97047 36.9298C8.83047 38.1098 10.7305 39.1998 12.6605 40.2498C13.7705 41.0698 15.0205 41.6298 16.2005 42.3298C18.7505 43.8298 21.3405 45.2698 23.9005 46.7498C26.5505 48.2898 29.2105 49.8098 31.8505 51.3798C34.2905 52.8298 36.9405 53.2998 39.7305 52.7098C44.8705 51.6098 48.3505 47.5798 48.5405 42.3298C48.6705 38.8198 47.4305 35.8098 44.6605 33.5298C44.3005 33.1098 43.8505 32.7998 43.3805 32.5198C41.0005 31.1398 38.6205 29.7798 36.2405 28.3998C35.4405 27.9398 34.6405 27.4598 33.7605 26.9398C36.8405 25.1598 39.7905 23.3898 42.8005 21.7298C46.9605 19.4398 49.3105 14.5298 48.3705 9.85981C46.8605 2.33981 38.6405 -1.39021 31.8705 2.45979C23.2005 7.38979 14.5705 12.3698 5.96046 17.3998C-0.229535 21.0198 -1.25953 29.6898 3.81047 34.7698C4.73047 35.6898 5.89047 36.2498 6.97047 36.9398V36.9298Z" fill="#40D04F"/>
<path d="M33.7503 26.9296L22.9903 20.8096C22.9903 20.8096 16.2203 16.8996 20.6703 9.08957L28.6603 4.32959L41.1603 22.5796C41.1603 22.5796 34.7603 26.3396 33.7503 26.9296Z" fill="url(#paint0_linear_3131_2845)"/>
<path d="M31.0701 13.6999C31.5727 13.6999 31.9801 13.2925 31.9801 12.7899C31.9801 12.2873 31.5727 11.8799 31.0701 11.8799C30.5676 11.8799 30.1602 12.2873 30.1602 12.7899C30.1602 13.2925 30.5676 13.6999 31.0701 13.6999Z" fill="white"/>
<path d="M35.1004 13.6999C35.603 13.6999 36.0104 13.2925 36.0104 12.7899C36.0104 12.2873 35.603 11.8799 35.1004 11.8799C34.5979 11.8799 34.1904 12.2873 34.1904 12.7899C34.1904 13.2925 34.5979 13.6999 35.1004 13.6999Z" fill="white"/>
<path d="M38.9706 13.6999C39.4731 13.6999 39.8806 13.2925 39.8806 12.7899C39.8806 12.2873 39.4731 11.8799 38.9706 11.8799C38.468 11.8799 38.0605 12.2873 38.0605 12.7899C38.0605 13.2925 38.468 13.6999 38.9706 13.6999Z" fill="white"/>
<defs>
<linearGradient id="paint0_linear_3131_2845" x1="38.0303" y1="9.67958" x2="21.1503" y2="24.2896" gradientUnits="userSpaceOnUse">
<stop offset="0.22" stop-color="#40D04F"/>
<stop offset="0.67" stop-color="#006838"/>
</linearGradient>
</defs>
</svg>
