<svg width="1067" height="353" viewBox="0 0 1067 353" fill="none" xmlns="http://www.w3.org/2000/svg">
<path d="M987.63 279.04H990.39L989.96 299.02H987.63V279.04Z" fill="#201A56"/>
<path d="M1013.5 268.76C1014.54 267.79 1042.88 240.03 1039.54 205.2C1036.2 170.37 1009.16 161.75 1016.84 121.17C1024.52 80.5898 1016.84 52.5797 993.47 52.2197C970.1 51.8597 959.42 76.2797 968.1 119.74C976.78 163.19 939.59 180.19 941.39 212.03C943.46 248.74 970.44 308.99 1013.5 268.77V268.76Z" fill="#91BDDD"/>
<g style="mix-blend-mode:soft-light" opacity="0.2">
<path d="M977.28 57.6297C977.68 59.5597 978.74 61.4697 980.47 62.3097C982.07 63.0797 983.9 62.9197 985.58 62.6097C988.69 62.0197 991.83 60.7697 995.02 61.2197C996.63 61.4497 998.15 62.2097 999.6 62.9697C1001.18 63.8097 1002.68 64.8297 1004.09 65.9897C1006.77 68.2097 1009.1 70.9798 1010.7 74.1998C1012.53 77.8698 1013.16 81.9097 1013.27 86.0297C1013.39 90.7897 1012.99 95.5497 1013.78 100.27C1014.31 103.41 1015.21 106.84 1017.25 109.25C1017.64 109.71 1018.08 110.08 1018.54 110.41C1022.98 75.7097 1014.7 52.5298 993.46 52.1998C987.05 52.0998 981.61 53.8998 977.25 57.4198C977.26 57.4898 977.26 57.5597 977.28 57.6297Z" fill="#F3FAFE"/>
</g>
<path opacity="0.15" d="M994.46 197.59C991.21 191.16 991.17 183.17 992.96 176.26C993.92 172.56 995.38 169.02 997.06 165.64C997.74 164.27 998.58 162.98 999.2 161.58C999.65 160.57 999.56 159.69 999.2 158.66C998.57 156.88 997.68 155.18 996.98 153.43C996.27 151.66 995.6 149.88 995.02 148.07C993.81 144.28 993.33 140.45 993.05 136.48C992.77 132.56 992.91 128.5 994.07 124.74C995.11 121.38 997.36 118.67 998.49 115.39C996.63 114.17 995.02 112.59 993.68 110.74C992.14 108.6 990.94 106.22 990 103.7C990 109.26 990 114.82 989.98 120.37C989.93 142.52 989.84 164.67 989.79 186.82C989.74 206.56 989.75 226.3 989.75 246.04C990.13 244.62 990.54 243.21 991 241.82C995.13 229.31 1002.02 218.2 1008.7 207.13C1002.71 207.37 997.32 203.24 994.47 197.6L994.46 197.59Z" fill="#212334"/>
<path opacity="0.15" d="M997.9 279.45C994.62 279.49 991.31 278.9 988.37 277.29C985.26 275.59 982.83 272.79 981.11 269.56C980.05 267.57 979.42 265.59 979.06 263.34C978.67 260.92 978.27 258.63 976.79 256.67C974.21 253.26 969.8 252.79 966.27 251.07C962.96 249.46 960.42 246.39 958.45 243.17C956.48 239.94 955.09 236.3 954.13 232.58C952.1 224.7 951.88 216.28 952.82 208.2C953.69 200.72 955.52 193.32 958.96 186.72C963.07 178.86 968.47 171.84 972.31 163.82C974.2 159.89 975.6 155.69 976.21 151.3C976.94 146.07 976.48 140.8 975.38 135.67C974.16 130.01 972.21 124.58 970.21 119.19C968.34 114.17 966.75 109.1 965.68 103.82C966.17 108.79 966.96 114.09 968.09 119.72C976.77 163.17 939.58 180.17 941.38 212.01C943.19 244.07 964 294.08 997.93 279.44C997.93 279.44 997.91 279.44 997.9 279.44V279.45Z" fill="#212334"/>
<path d="M1019.59 197.479C1019.45 197.329 1019.23 197.329 1019.09 197.479L989.48 229.33V175.18L1005.98 156.44C1006.11 156.29 1006.11 156.049 1005.97 155.909C1005.83 155.769 1005.61 155.769 1005.47 155.919L989.48 174.09V125.359L1001.47 112.27C1001.61 112.12 1001.6 111.88 1001.47 111.74C1001.33 111.59 1001.11 111.59 1000.97 111.74L989.48 124.28V82.3795C989.48 82.1695 989.32 81.9995 989.13 81.9995C988.94 81.9995 988.78 82.1695 988.78 82.3795V140.82L979.66 132.46C979.51 132.33 979.29 132.34 979.16 132.5C979.03 132.66 979.05 132.9 979.2 133.03L988.77 141.799V196.83L970.7 177.4C970.56 177.25 970.34 177.25 970.2 177.4C970.06 177.55 970.06 177.79 970.2 177.93L988.76 197.9V230.24V280.969C988.76 281.179 988.92 281.349 989.11 281.349C989.3 281.349 989.46 281.179 989.46 280.969V230.39L1019.56 198.01C1019.7 197.86 1019.7 197.619 1019.56 197.479H1019.59Z" fill="white"/>
<path d="M1027.63 286.17H1029.37L1029.1 298.78H1027.63V286.17Z" fill="#201A56"/>
<path d="M1043.95 279.68C1044.61 279.07 1062.49 261.55 1060.38 239.57C1058.27 217.59 1041.21 212.15 1046.06 186.55C1050.9 160.95 1046.06 143.27 1031.32 143.05C1016.58 142.82 1009.83 158.23 1015.31 185.65C1020.79 213.07 997.32 223.79 998.46 243.88C999.77 267.04 1016.79 305.06 1043.96 279.68H1043.95Z" fill="#9EC7EA"/>
<g style="mix-blend-mode:soft-light" opacity="0.2">
<path d="M1021.1 146.48C1021.35 147.7 1022.02 148.9 1023.11 149.43C1024.12 149.91 1025.28 149.82 1026.33 149.62C1028.29 149.25 1030.27 148.46 1032.29 148.74C1033.3 148.88 1034.27 149.36 1035.18 149.85C1036.18 150.38 1037.13 151.02 1038.01 151.75C1039.7 153.15 1041.17 154.9 1042.18 156.93C1043.33 159.24 1043.73 161.79 1043.8 164.4C1043.88 167.4 1043.62 170.41 1044.12 173.38C1044.46 175.36 1045.02 177.53 1046.31 179.05C1046.56 179.34 1046.83 179.58 1047.12 179.78C1049.92 157.89 1044.7 143.26 1031.3 143.06C1027.25 143 1023.82 144.13 1021.07 146.35C1021.07 146.4 1021.07 146.44 1021.09 146.49L1021.1 146.48Z" fill="#F3FAFE"/>
</g>
<path opacity="0.15" d="M1031.94 234.78C1029.89 230.72 1029.86 225.68 1030.99 221.32C1031.59 218.98 1032.52 216.75 1033.58 214.62C1034.01 213.76 1034.54 212.94 1034.93 212.06C1035.21 211.42 1035.16 210.87 1034.93 210.22C1034.53 209.1 1033.97 208.03 1033.53 206.92C1033.08 205.81 1032.66 204.68 1032.29 203.54C1031.53 201.15 1031.22 198.73 1031.05 196.23C1030.87 193.76 1030.96 191.2 1031.69 188.82C1032.34 186.7 1033.76 184.99 1034.48 182.92C1033.31 182.15 1032.29 181.16 1031.45 179.99C1030.48 178.64 1029.72 177.14 1029.13 175.55C1029.13 179.06 1029.13 182.56 1029.12 186.07C1029.09 200.05 1029.03 214.02 1029 228C1028.97 240.45 1028.97 252.91 1028.97 265.36C1029.21 264.46 1029.47 263.57 1029.76 262.69C1032.37 254.8 1036.71 247.79 1040.93 240.8C1037.15 240.95 1033.75 238.35 1031.95 234.79L1031.94 234.78Z" fill="#212334"/>
<path opacity="0.15" d="M1034.11 286.43C1032.04 286.45 1029.95 286.08 1028.1 285.06C1026.14 283.99 1024.6 282.22 1023.52 280.18C1022.85 278.92 1022.46 277.68 1022.23 276.25C1021.99 274.72 1021.73 273.28 1020.8 272.04C1019.17 269.89 1016.39 269.59 1014.16 268.51C1012.07 267.49 1010.47 265.56 1009.23 263.52C1007.99 261.48 1007.11 259.18 1006.5 256.84C1005.22 251.87 1005.08 246.56 1005.67 241.46C1006.22 236.74 1007.37 232.07 1009.55 227.91C1012.14 222.95 1015.55 218.52 1017.98 213.46C1019.17 210.98 1020.06 208.33 1020.44 205.56C1020.9 202.26 1020.61 198.94 1019.91 195.7C1019.14 192.13 1017.91 188.7 1016.65 185.3C1015.47 182.13 1014.47 178.94 1013.79 175.61C1014.1 178.75 1014.6 182.09 1015.31 185.64C1020.79 213.06 997.32 223.78 998.46 243.87C999.6 264.1 1012.73 295.65 1034.14 286.42C1034.14 286.42 1034.13 286.42 1034.12 286.42L1034.11 286.43Z" fill="#212334"/>
<path d="M1047.8 234.71C1047.71 234.62 1047.57 234.62 1047.49 234.71L1028.81 254.8V220.63L1039.22 208.8C1039.3 208.71 1039.3 208.55 1039.22 208.46C1039.13 208.37 1038.99 208.37 1038.91 208.46L1028.82 219.92V189.18L1036.38 180.92C1036.47 180.83 1036.47 180.68 1036.38 180.58C1036.29 180.49 1036.15 180.49 1036.07 180.58L1028.82 188.49V162.05C1028.82 161.92 1028.72 161.81 1028.6 161.81C1028.48 161.81 1028.38 161.92 1028.38 162.05V198.92L1022.63 193.65C1022.54 193.57 1022.4 193.58 1022.32 193.68C1022.24 193.78 1022.25 193.93 1022.34 194.02L1028.38 199.56V234.28L1016.98 222.02C1016.89 221.93 1016.75 221.93 1016.67 222.02C1016.58 222.11 1016.58 222.26 1016.67 222.36L1028.38 234.96V255.36V287.37C1028.38 287.5 1028.48 287.61 1028.6 287.61C1028.72 287.61 1028.82 287.5 1028.82 287.37V255.46L1047.81 235.03C1047.9 234.94 1047.9 234.79 1047.81 234.69L1047.8 234.71Z" fill="white"/>
<path d="M1020.41 297.36C1020.41 297.36 1014.4 250.4 1026.37 255.04C1038.34 259.67 1032.85 278.49 1020.41 297.36Z" fill="#7DB6E0"/>
<g style="mix-blend-mode:soft-light" opacity="0.2">
<path d="M1020.45 262.85C1021.06 262.34 1021.29 261.42 1021.56 260.67C1021.88 259.8 1022.24 258.96 1022.87 258.3C1023.64 257.48 1024.63 257.04 1025.69 256.88C1026.71 256.73 1027.8 256.87 1028.79 256.52C1028.83 256.51 1028.86 256.48 1028.9 256.46C1028.15 255.9 1027.33 255.4 1026.36 255.02C1022.5 253.53 1020.52 257.4 1019.59 263.33C1019.9 263.2 1020.2 263.04 1020.44 262.84L1020.45 262.85Z" fill="#F3FAFE"/>
</g>
<path opacity="0.15" d="M1031.88 263.19C1031.83 266.69 1031.7 270.14 1030.71 273.51C1030.3 274.92 1029.8 276.35 1029.24 277.7C1028.8 278.76 1028.22 279.85 1027.3 280.5C1025.3 281.92 1022.95 280.47 1021.53 278.82C1020.66 277.81 1019.91 276.53 1018.92 275.69C1019.03 286.46 1020.42 297.35 1020.42 297.35C1029.87 283.01 1035.27 268.73 1032.07 260.66C1031.91 261.48 1031.9 262.37 1031.89 263.18L1031.88 263.19Z" fill="#212334"/>
<path d="M1019.61 296.9C1019.61 296.9 1044.1 250.58 1060.99 266.51C1077.88 282.44 1019.61 296.9 1019.61 296.9Z" fill="#201A56"/>
<g style="mix-blend-mode:soft-light" opacity="0.2">
<path d="M1035.89 273.79C1036.57 273.9 1037.28 273.95 1037.96 273.93C1038 273.93 1038.05 273.93 1038.09 273.93C1038.03 273.91 1038.68 273.79 1038.78 273.75C1039.46 273.49 1040.03 273.06 1040.56 272.54C1041.59 271.52 1042.45 270.36 1043.68 269.59C1046.39 267.88 1049.71 267.57 1052.73 266.93C1054.07 266.64 1056.36 266.53 1056.92 264.91C1057.03 264.58 1057.03 264.25 1056.97 263.93C1050.04 261.21 1042.33 266.58 1035.73 273.75C1035.78 273.76 1035.84 273.78 1035.89 273.79Z" fill="#F3FAFE"/>
</g>
<path opacity="0.15" d="M1060.39 278.4C1058.12 280.02 1055.6 280.92 1052.87 280.97C1051.45 281 1049.98 280.86 1048.58 281.2C1047.18 281.54 1046.16 282.36 1045.22 283.49C1043.46 285.61 1041.83 287.48 1039.34 288.59C1036.75 289.76 1033.9 289.95 1031.13 289.87C1030 289.84 1028.91 289.69 1027.8 289.56C1026.95 289.46 1025.82 289.29 1025.02 289.76C1023.99 290.37 1024 292.25 1024.18 293.32C1024.31 294.08 1024.58 294.79 1024.95 295.44C1036.65 292.05 1063.57 283.13 1064.05 272.74C1063.26 274.98 1062.41 276.95 1060.39 278.4Z" fill="#212334"/>
<path d="M1054.07 322.42H842.68L845.71 311.05L852.84 284.13C857.89 265.12 875.44 253.23 893.57 256.55L902.72 258.26C903.41 258.38 904.08 258.45 904.74 258.45C908.78 258.45 912.62 256.28 914.9 252.58C930.61 227.24 966.11 230.38 977.78 258.14L979.34 261.87C982.09 268.45 989.27 271.38 995.39 268.44L1004.52 264.05C1009.86 261.47 1015.81 263.4 1019.1 267.93C1020.31 269.58 1021.18 271.56 1021.53 273.8L1022.89 282.31C1023.24 284.42 1023.99 286.28 1025.06 287.84C1025.26 288.12 1025.46 288.4 1025.67 288.65C1027.52 290.95 1030.03 292.47 1032.77 293C1033.46 293.15 1034.21 293.22 1034.94 293.22C1037.23 293.22 1039.55 292.54 1041.66 291.03C1046.41 287.62 1052.78 288.47 1056.83 292.81L1062.96 299.41C1070.86 307.91 1065.26 322.44 1054.09 322.44L1054.07 322.42Z" fill="#9EC7EA"/>
<path opacity="0.15" d="M1039.47 315.04C1038.16 310.72 1033.22 306.62 1028.85 307.66C1028.32 307.79 1027.88 307.49 1027.7 306.96C1026.7 304.02 1027.92 299.3 1024.93 297.49C1022.66 296.12 1019.37 296.94 1017.34 298.46C1012.07 302.41 1012.19 309.76 1011.21 315.89C1011.09 316.62 1010.09 316.87 1009.65 316.33C1008.52 314.93 1007.76 313.09 1006.89 311.51C1005.68 309.3 1004.43 307.08 1002.98 305.04C1002.07 303.76 1000.65 301.59 999.03 301.3C996.94 300.93 997.089 304.95 997.359 306.29C998.029 309.59 999.76 312.48 1000.56 315.72C1000.68 316.22 1000.4 316.84 999.91 316.95C998.6 317.26 997.449 316.73 996.379 315.93C995.039 314.94 994.029 314.01 992.389 313.61C990.099 313.05 986.379 313.06 985.069 310.47C984.609 309.55 984.739 308.4 984.759 307.4C984.799 305.45 984.979 303.5 984.989 301.55C985.009 297.72 984.209 294.08 982.509 290.71C979.779 285.29 975.399 280.6 970.849 276.91C966.339 273.25 961.219 270.41 955.729 268.9C945.279 266.04 933.31 268.65 926.66 278.34C923.75 282.58 922.039 287.64 921.299 292.82C920.429 298.87 921.109 305.1 921.789 311.14C922.209 314.92 922.8 318.68 923.56 322.4H1038.67C1039.84 320.25 1040.25 317.72 1039.43 315.02L1039.47 315.04Z" fill="#212334"/>
<g style="mix-blend-mode:soft-light" opacity="0.2">
<path d="M948.37 243.61C951.26 245.44 954.78 245.79 957.98 246.66C960.75 247.42 963.31 248.64 965.5 250.63C968.85 253.66 970.78 257.98 973.01 261.93C975.69 266.67 979.38 271.32 984.49 273C990.12 274.84 994.92 270.5 1000.33 269.64C1004.65 268.95 1009.07 269.6 1012.83 272.08C1016.62 274.58 1019.41 278.52 1021.47 282.7C1023.48 286.77 1025.49 290.83 1029.55 292.87C1034.79 295.49 1040.69 294.81 1045.83 292.36C1047.63 291.5 1049.22 290.46 1050.79 289.3C1047.71 288.55 1044.4 289.05 1041.64 291.04C1039.53 292.55 1037.21 293.23 1034.92 293.23C1034.2 293.23 1033.45 293.17 1032.75 293.01C1030.01 292.48 1027.5 290.96 1025.65 288.66C1025.45 288.41 1025.25 288.13 1025.04 287.85C1023.97 286.3 1023.22 284.43 1022.87 282.32L1021.51 273.81C1021.16 271.57 1020.3 269.59 1019.08 267.94C1015.79 263.41 1009.84 261.48 1004.5 264.06L995.37 268.45C989.25 271.4 982.07 268.45 979.32 261.88L977.76 258.15C971.01 242.08 956.26 234.28 942 235.46C943.58 238.68 945.39 241.75 948.35 243.62L948.37 243.61Z" fill="#F3FAFE"/>
</g>
<path d="M1029.03 323.09C1029.03 323.09 993.14 328.79 984.52 329.94C975.9 331.09 1011.36 330.94 1003.45 336.42C995.54 341.9 974.42 356.84 946.53 348.66C918.64 340.48 933.03 355.59 855.6 351.48C827.76 350 836.78 326.28 843.43 321.16C850.07 316.03 1010.53 313.63 1029.04 323.09H1029.03Z" fill="#9EC7EA"/>
<path d="M1035.41 322.42H842.68L845.71 311.05C855.24 301.86 868.4 297.36 881.8 299.84L888.93 301.14L892.77 301.82C893.61 301.98 894.44 302.04 895.25 302.04C897.04 302.04 898.8 301.7 900.45 301.02C903.22 299.87 905.65 297.85 907.38 295.06C909.8 291.12 912.66 287.76 915.78 285C916.99 283.88 918.23 282.89 919.53 281.99C926.55 276.99 934.6 274.51 942.68 274.41C947.41 274.32 952.12 275.06 956.62 276.65C967.56 280.38 977.26 288.85 982.66 301.74L984.54 306.15C987.86 314.07 996.49 317.58 1003.82 314.04L1009.36 311.37L1014.7 308.79C1017.12 307.61 1019.67 307.24 1022.09 307.49C1028.38 308.14 1033.93 313.17 1035.08 320.47L1035.4 322.43L1035.41 322.42Z" fill="#BDE2F3"/>
<path d="M1009.28 280.51C1009.28 282.74 1007.6 284.55 1005.52 284.55C1003.44 284.55 1001.76 282.74 1001.76 280.51C1001.76 278.28 1003.44 276.47 1005.52 276.47C1007.6 276.47 1009.28 278.28 1009.28 280.51Z" fill="#7DB6E0"/>
<path d="M962.68 294.04C962.68 296.27 961 298.08 958.92 298.08C956.84 298.08 955.16 296.27 955.16 294.04C955.16 291.81 956.84 290 958.92 290C961 290 962.68 291.81 962.68 294.04Z" fill="#201A56"/>
<path opacity="0.15" d="M955.57 254.78C955.57 259.08 952.33 262.57 948.33 262.57C944.33 262.57 941.09 259.08 941.09 254.78C941.09 250.48 944.33 246.99 948.33 246.99C952.33 246.99 955.57 250.48 955.57 254.78Z" fill="#212334"/>
<path d="M955.07 252.93C955.07 257.23 951.83 260.72 947.83 260.72C943.83 260.72 940.59 257.23 940.59 252.93C940.59 248.63 943.83 245.14 947.83 245.14C951.83 245.14 955.07 248.63 955.07 252.93Z" fill="#201A56"/>
<path d="M1009.14 320.29C1009.14 320.29 992.19 297.31 999.93 295.72C1007.67 294.13 1010.25 306.02 1009.14 320.29Z" fill="#201A56"/>
<g style="mix-blend-mode:soft-light" opacity="0.2">
<path d="M999.099 298.86C999.869 298.58 1000.59 298.33 1001.4 298.25C1003.02 298.09 1004.88 298.45 1006.22 299.49C1006.75 299.9 1007.09 300.4 1007.43 300.94C1005.91 297.1 1003.46 295 999.929 295.72C998.309 296.05 997.779 297.34 997.949 299.14C998.339 299.14 998.799 298.96 999.099 298.85V298.86Z" fill="#F3FAFE"/>
</g>
<path opacity="0.15" d="M1005.56 312.79C1004.86 312.62 1004.17 312.29 1003.53 311.87C1006.34 316.49 1009.14 320.29 1009.14 320.29C1009.37 317.29 1009.44 314.4 1009.33 311.71C1008.37 312.9 1006.94 313.1 1005.56 312.78V312.79Z" fill="#212334"/>
<path d="M1009.14 320.29C1009.14 320.29 1019.82 289.38 1031.61 297.31C1043.4 305.24 1009.14 320.29 1009.14 320.29Z" fill="#7DB6E0"/>
<g style="mix-blend-mode:soft-light" opacity="0.2">
<path d="M1017.49 305.54C1018.37 304.7 1018.9 303.54 1019.83 302.73C1020.83 301.86 1021.98 301.32 1023.17 300.81C1024.3 300.32 1025.61 299.88 1026.31 298.73C1026.73 298.04 1026.92 296.93 1026.58 296.12C1022.44 296.81 1018.63 301.37 1015.64 306.36C1016.32 306.25 1016.97 306.04 1017.5 305.54H1017.49Z" fill="#F3FAFE"/>
</g>
<path opacity="0.15" d="M1023.5 310.33C1021.99 310.58 1019.91 310.62 1018.63 311.62C1017.99 312.12 1017.58 312.89 1016.91 313.39C1016.27 313.87 1015.52 314.14 1014.77 314.33C1013.63 314.62 1012.5 314.7 1011.46 314.51C1009.98 317.85 1009.13 320.31 1009.13 320.31C1009.13 320.31 1020.67 315.23 1028.05 309.42C1026.55 309.86 1024.97 310.1 1023.49 310.34L1023.5 310.33Z" fill="#212334"/>
<path d="M1009.14 320.29C1009.14 320.29 969.72 315.14 979.67 308.4C989.62 301.66 1009.14 320.29 1009.14 320.29Z" fill="#7DB6E0"/>
<g style="mix-blend-mode:soft-light" opacity="0.2">
<path d="M982.619 310.79C984.509 310.95 986.319 310.17 988.169 309.97C990.729 309.69 992.869 310.49 995.259 311.27C996.219 311.58 997.239 311.85 998.259 311.91C992.209 308.12 984.919 305.13 979.919 308.26C979.869 309.48 981.309 310.67 982.619 310.79Z" fill="#F3FAFE"/>
</g>
<path opacity="0.15" d="M997.81 317.9C996.61 317.82 995.41 317.739 994.24 317.479C993.01 317.209 991.82 316.8 990.6 316.51C989.84 316.33 989.07 316.26 988.3 316.25C997.35 318.75 1009.14 320.289 1009.14 320.289C1009.14 320.289 1007.31 318.55 1004.5 316.34C1004.4 316.53 1004.27 316.72 1004.11 316.88C1003.4 317.62 1002.25 317.749 1001.31 317.859C1000.15 317.999 998.97 317.97 997.8 317.89L997.81 317.9Z" fill="#212334"/>
<path d="M287.13 296.2C287.13 296.2 281.12 249.24 293.09 253.88C305.06 258.52 299.57 277.33 287.13 296.2Z" fill="#7DB6E0"/>
<g style="mix-blend-mode:soft-light" opacity="0.2">
<path d="M287.17 261.7C287.78 261.19 288.01 260.27 288.28 259.52C288.6 258.65 288.96 257.81 289.59 257.15C290.36 256.33 291.35 255.89 292.41 255.73C293.43 255.58 294.52 255.72 295.51 255.37C295.55 255.36 295.58 255.33 295.62 255.31C294.87 254.75 294.05 254.25 293.08 253.87C289.22 252.38 287.24 256.25 286.31 262.18C286.62 262.05 286.92 261.89 287.16 261.69L287.17 261.7Z" fill="#F3FAFE"/>
</g>
<path opacity="0.15" d="M298.6 262.03C298.55 265.53 298.42 268.98 297.43 272.35C297.02 273.76 296.52 275.19 295.96 276.54C295.52 277.6 294.94 278.69 294.02 279.34C292.02 280.76 289.67 279.31 288.25 277.66C287.38 276.65 286.63 275.37 285.64 274.53C285.75 285.3 287.14 296.19 287.14 296.19C296.59 281.85 301.99 267.57 298.79 259.5C298.63 260.32 298.62 261.21 298.61 262.02L298.6 262.03Z" fill="#212334"/>
<path d="M286.34 295.75C286.34 295.75 310.83 249.43 327.72 265.36C344.61 281.29 286.34 295.75 286.34 295.75Z" fill="#201A56"/>
<g style="mix-blend-mode:soft-light" opacity="0.2">
<path d="M302.62 272.64C303.3 272.75 304.01 272.8 304.69 272.78C304.73 272.78 304.78 272.78 304.82 272.78C304.76 272.76 305.41 272.64 305.51 272.6C306.19 272.34 306.76 271.91 307.29 271.39C308.32 270.37 309.18 269.21 310.41 268.44C313.12 266.73 316.44 266.42 319.46 265.78C320.8 265.49 323.09 265.38 323.65 263.76C323.76 263.43 323.76 263.1 323.7 262.78C316.77 260.06 309.06 265.43 302.46 272.6C302.51 272.61 302.57 272.63 302.62 272.64Z" fill="#F3FAFE"/>
</g>
<path opacity="0.15" d="M327.109 277.24C324.839 278.86 322.319 279.76 319.589 279.81C318.169 279.84 316.699 279.7 315.299 280.04C313.899 280.38 312.879 281.2 311.939 282.33C310.179 284.45 308.549 286.32 306.059 287.43C303.469 288.6 300.619 288.79 297.849 288.71C296.719 288.68 295.629 288.53 294.509 288.4C293.659 288.3 292.529 288.13 291.729 288.6C290.699 289.21 290.709 291.09 290.889 292.16C291.019 292.92 291.289 293.63 291.659 294.28C303.359 290.89 330.279 281.97 330.759 271.58C329.969 273.82 329.119 275.79 327.099 277.24H327.109Z" fill="#212334"/>
<path d="M320.799 321.27H109.409L112.439 309.9L119.569 282.98C124.619 263.97 142.169 252.08 160.299 255.4L169.449 257.11C170.139 257.23 170.809 257.3 171.469 257.3C175.509 257.3 179.349 255.13 181.629 251.43C197.339 226.09 232.839 229.23 244.509 256.99L246.069 260.72C248.819 267.3 255.999 270.23 262.119 267.29L271.249 262.9C276.589 260.32 282.539 262.25 285.829 266.78C287.039 268.43 287.909 270.41 288.259 272.65L289.619 281.16C289.969 283.27 290.719 285.13 291.789 286.69C291.989 286.97 292.189 287.25 292.399 287.5C294.249 289.8 296.759 291.32 299.499 291.85C300.189 292 300.939 292.07 301.669 292.07C303.959 292.07 306.279 291.39 308.389 289.88C313.139 286.47 319.509 287.32 323.559 291.66L329.689 298.26C337.589 306.76 331.989 321.29 320.819 321.29L320.799 321.27Z" fill="#91BDDD"/>
<path opacity="0.15" d="M306.2 313.89C304.89 309.57 299.95 305.47 295.58 306.51C295.05 306.64 294.61 306.34 294.43 305.81C293.43 302.87 294.65 298.15 291.66 296.34C289.39 294.97 286.1 295.79 284.07 297.31C278.8 301.26 278.92 308.61 277.94 314.74C277.82 315.47 276.82 315.72 276.38 315.18C275.25 313.78 274.49 311.94 273.62 310.36C272.41 308.15 271.16 305.93 269.71 303.89C268.8 302.61 267.38 300.44 265.76 300.15C263.67 299.78 263.82 303.8 264.09 305.14C264.76 308.44 266.49 311.33 267.29 314.57C267.41 315.07 267.13 315.69 266.64 315.8C265.33 316.11 264.18 315.57 263.11 314.78C261.77 313.79 260.76 312.86 259.12 312.46C256.83 311.9 253.11 311.91 251.8 309.32C251.34 308.4 251.47 307.25 251.49 306.25C251.53 304.3 251.71 302.35 251.72 300.4C251.74 296.57 250.94 292.93 249.24 289.56C246.51 284.14 242.13 279.45 237.58 275.76C233.07 272.1 227.95 269.26 222.46 267.75C212.01 264.89 200.04 267.5 193.39 277.19C190.48 281.43 188.77 286.49 188.03 291.67C187.16 297.72 187.84 303.95 188.52 309.99C188.94 313.77 189.53 317.53 190.29 321.25H305.4C306.57 319.1 306.98 316.57 306.16 313.87L306.2 313.89Z" fill="#212334"/>
<g style="mix-blend-mode:soft-light" opacity="0.2">
<path d="M215.09 242.45C217.98 244.28 221.5 244.63 224.7 245.5C227.47 246.26 230.03 247.48 232.22 249.47C235.57 252.5 237.5 256.82 239.73 260.77C242.41 265.51 246.1 270.16 251.21 271.84C256.84 273.68 261.64 269.34 267.05 268.48C271.37 267.79 275.79 268.44 279.55 270.92C283.34 273.42 286.13 277.36 288.19 281.54C290.2 285.61 292.21 289.67 296.27 291.71C301.51 294.33 307.41 293.65 312.55 291.2C314.35 290.34 315.94 289.3 317.51 288.14C314.43 287.39 311.12 287.89 308.36 289.88C306.25 291.39 303.93 292.07 301.64 292.07C300.92 292.07 300.17 292.01 299.47 291.85C296.73 291.32 294.22 289.8 292.37 287.5C292.17 287.25 291.97 286.97 291.76 286.69C290.69 285.14 289.94 283.27 289.59 281.16L288.23 272.65C287.88 270.41 287.02 268.43 285.8 266.78C282.51 262.25 276.56 260.32 271.22 262.9L262.09 267.29C255.97 270.24 248.79 267.29 246.04 260.72L244.48 256.99C237.73 240.92 222.98 233.12 208.72 234.3C210.3 237.52 212.11 240.59 215.07 242.46L215.09 242.45Z" fill="#F3FAFE"/>
</g>
<path d="M295.75 321.94C295.75 321.94 259.86 327.64 251.24 328.79C242.63 329.94 278.08 329.79 270.17 335.27C262.26 340.75 246.8 345.27 218.92 337.09C191.03 328.91 199.75 354.44 122.32 350.33C94.4797 348.85 103.5 325.13 110.15 320.01C116.79 314.88 277.25 312.48 295.76 321.94H295.75Z" fill="#9EC7EA"/>
<path d="M302.139 321.27H109.409L112.439 309.9C121.969 300.71 135.129 296.21 148.529 298.69L155.659 299.99L159.499 300.67C160.339 300.83 161.169 300.89 161.979 300.89C163.769 300.89 165.529 300.55 167.179 299.87C169.949 298.72 172.379 296.7 174.109 293.91C176.529 289.97 179.389 286.61 182.509 283.85C183.719 282.73 184.959 281.74 186.259 280.84C193.279 275.84 201.329 273.36 209.409 273.26C214.139 273.17 218.849 273.91 223.349 275.5C234.289 279.23 243.989 287.7 249.389 300.59L251.269 305C254.589 312.92 263.219 316.43 270.549 312.89L276.089 310.22L281.429 307.64C283.859 306.46 286.399 306.09 288.819 306.34C295.109 306.99 300.659 312.02 301.809 319.32L302.129 321.28L302.139 321.27Z" fill="#BDE2F3"/>
<path d="M275.999 279.35C275.999 281.58 274.319 283.39 272.239 283.39C270.159 283.39 268.479 281.58 268.479 279.35C268.479 277.12 270.159 275.31 272.239 275.31C274.319 275.31 275.999 277.12 275.999 279.35Z" fill="#7DB6E0"/>
<path d="M229.4 292.88C229.4 295.11 227.72 296.92 225.64 296.92C223.56 296.92 221.88 295.11 221.88 292.88C221.88 290.65 223.56 288.84 225.64 288.84C227.72 288.84 229.4 290.65 229.4 292.88Z" fill="#201A56"/>
<path opacity="0.15" d="M222.299 253.62C222.299 257.92 219.059 261.41 215.059 261.41C211.059 261.41 207.819 257.92 207.819 253.62C207.819 249.32 211.059 245.83 215.059 245.83C219.059 245.83 222.299 249.32 222.299 253.62Z" fill="#212334"/>
<path d="M221.799 251.77C221.799 256.07 218.559 259.56 214.559 259.56C210.559 259.56 207.319 256.07 207.319 251.77C207.319 247.47 210.559 243.98 214.559 243.98C218.559 243.98 221.799 247.47 221.799 251.77Z" fill="#201A56"/>
<path d="M275.87 319.14C275.87 319.14 258.92 296.16 266.66 294.57C274.4 292.98 276.98 304.87 275.87 319.14Z" fill="#201A56"/>
<g style="mix-blend-mode:soft-light" opacity="0.2">
<path d="M265.82 297.71C266.59 297.43 267.31 297.18 268.12 297.1C269.74 296.94 271.6 297.3 272.94 298.34C273.47 298.75 273.81 299.25 274.15 299.79C272.63 295.95 270.18 293.85 266.65 294.57C265.03 294.9 264.5 296.19 264.67 297.99C265.06 297.99 265.52 297.81 265.82 297.7V297.71Z" fill="#F3FAFE"/>
</g>
<path opacity="0.15" d="M272.29 311.63C271.59 311.46 270.9 311.13 270.26 310.71C273.07 315.33 275.87 319.13 275.87 319.13C276.1 316.13 276.17 313.24 276.06 310.55C275.1 311.74 273.67 311.94 272.29 311.62V311.63Z" fill="#212334"/>
<path d="M275.87 319.14C275.87 319.14 286.55 288.23 298.34 296.16C310.13 304.09 275.87 319.14 275.87 319.14Z" fill="#7DB6E0"/>
<g style="mix-blend-mode:soft-light" opacity="0.2">
<path d="M284.22 304.39C285.1 303.55 285.63 302.39 286.56 301.58C287.56 300.71 288.71 300.17 289.9 299.66C291.03 299.17 292.34 298.73 293.04 297.58C293.46 296.89 293.65 295.78 293.31 294.97C289.17 295.66 285.36 300.22 282.37 305.21C283.05 305.1 283.7 304.89 284.23 304.39H284.22Z" fill="#F3FAFE"/>
</g>
<path opacity="0.15" d="M290.23 309.17C288.72 309.42 286.64 309.46 285.36 310.46C284.72 310.96 284.31 311.73 283.64 312.23C283 312.71 282.25 312.98 281.5 313.17C280.36 313.46 279.23 313.54 278.19 313.35C276.71 316.69 275.86 319.15 275.86 319.15C275.86 319.15 287.4 314.07 294.78 308.26C293.28 308.7 291.7 308.94 290.22 309.18L290.23 309.17Z" fill="#212334"/>
<path d="M275.87 319.14C275.87 319.14 236.45 313.99 246.4 307.25C256.35 300.51 275.87 319.14 275.87 319.14Z" fill="#7DB6E0"/>
<g style="mix-blend-mode:soft-light" opacity="0.2">
<path d="M249.35 309.63C251.24 309.79 253.05 309.01 254.9 308.81C257.46 308.53 259.6 309.33 261.99 310.11C262.95 310.42 263.97 310.69 264.99 310.75C258.94 306.96 251.65 303.97 246.65 307.1C246.6 308.32 248.04 309.51 249.35 309.63Z" fill="#F3FAFE"/>
</g>
<path opacity="0.15" d="M264.531 316.75C263.331 316.67 262.131 316.59 260.961 316.33C259.731 316.06 258.541 315.65 257.321 315.36C256.561 315.18 255.791 315.11 255.021 315.1C264.071 317.6 275.861 319.14 275.861 319.14C275.861 319.14 274.031 317.4 271.221 315.19C271.121 315.38 270.991 315.57 270.831 315.73C270.121 316.47 268.971 316.6 268.031 316.71C266.871 316.85 265.691 316.82 264.521 316.74L264.531 316.75Z" fill="#212334"/>
<path d="M36.9402 306.56C36.9402 306.56 41.7202 269.26 32.2102 272.94C22.7002 276.62 27.0602 291.57 36.9402 306.56Z" fill="#7DB6E0"/>
<g style="mix-blend-mode:soft-light" opacity="0.2">
<path d="M36.9102 279.15C36.4302 278.74 36.2502 278.01 36.0302 277.42C35.7702 276.73 35.4902 276.06 34.9902 275.53C34.3702 274.88 33.5902 274.53 32.7502 274.4C31.9402 274.28 31.0702 274.39 30.2802 274.12C30.2502 274.11 30.2302 274.09 30.2002 274.07C30.7902 273.63 31.4402 273.23 32.2202 272.93C35.2902 271.74 36.8602 274.82 37.6002 279.53C37.3502 279.43 37.1202 279.3 36.9202 279.14L36.9102 279.15Z" fill="#F3FAFE"/>
</g>
<path opacity="0.15" d="M27.8296 279.42C27.8696 282.2 27.9796 284.94 28.7596 287.62C29.0896 288.74 29.4896 289.87 29.9296 290.95C30.2796 291.8 30.7396 292.66 31.4696 293.18C33.0596 294.31 34.9296 293.15 36.0496 291.85C36.7396 291.05 37.3396 290.03 38.1296 289.36C38.0496 297.92 36.9396 306.56 36.9396 306.56C29.4296 295.17 25.1496 283.83 27.6896 277.42C27.8196 278.07 27.8196 278.78 27.8296 279.42Z" fill="#212334"/>
<path d="M37.5698 306.2C37.5698 306.2 18.1198 269.41 4.69977 282.06C-8.72023 294.71 37.5698 306.2 37.5698 306.2Z" fill="#201A56"/>
<g style="mix-blend-mode:soft-light" opacity="0.2">
<path d="M24.6398 287.84C24.0998 287.92 23.5398 287.97 22.9898 287.95C22.9598 287.95 22.9198 287.95 22.8898 287.95C22.9398 287.94 22.4198 287.84 22.3398 287.81C21.7998 287.61 21.3498 287.26 20.9298 286.85C20.1098 286.04 19.4298 285.12 18.4498 284.51C16.2898 283.16 13.6598 282.91 11.2598 282.39C10.1998 282.16 8.3698 282.07 7.9398 280.79C7.8498 280.52 7.8498 280.26 7.8998 280.01C13.4098 277.85 19.5298 282.11 24.7698 287.81C24.7298 287.81 24.6898 287.83 24.6398 287.84Z" fill="#F3FAFE"/>
</g>
<path opacity="0.15" d="M5.18004 291.5C6.98004 292.79 8.99004 293.5 11.15 293.54C12.28 293.56 13.44 293.46 14.56 293.73C15.67 294 16.48 294.65 17.23 295.55C18.63 297.23 19.92 298.72 21.9 299.6C23.96 300.53 26.22 300.68 28.43 300.62C29.33 300.59 30.19 300.47 31.08 300.37C31.76 300.29 32.66 300.15 33.29 300.53C34.11 301.01 34.1 302.51 33.96 303.36C33.86 303.96 33.64 304.53 33.35 305.04C24.05 302.35 2.67004 295.26 2.29004 287.01C2.92004 288.79 3.60004 290.36 5.20004 291.5H5.18004Z" fill="#212334"/>
<path d="M10.1998 326.47H178.12L175.71 317.44L170.05 296.05C166.04 280.95 152.09 271.5 137.69 274.14L130.42 275.5C129.87 275.6 129.34 275.65 128.81 275.65C125.6 275.65 122.55 273.92 120.74 270.99C108.26 250.86 80.0598 253.35 70.7898 275.41L69.5498 278.37C67.3698 283.59 61.6598 285.93 56.7998 283.59L49.5498 280.1C45.3098 278.05 40.5798 279.58 37.9698 283.18C37.0098 284.49 36.3198 286.07 36.0398 287.84L34.9598 294.6C34.6798 296.28 34.0898 297.76 33.2398 298.99C33.0798 299.21 32.9198 299.43 32.7598 299.63C31.2898 301.46 29.2998 302.66 27.1198 303.08C26.5698 303.2 25.9698 303.25 25.3998 303.25C23.5798 303.25 21.7398 302.71 20.0598 301.51C16.2798 298.8 11.2198 299.47 8.00981 302.93L3.1398 308.17C-3.1402 314.92 1.30981 326.46 10.1798 326.46L10.1998 326.47Z" fill="#9EC7EA"/>
<path opacity="0.15" d="M21.7997 320.609C22.8397 317.179 26.7597 313.919 30.2297 314.749C30.6497 314.849 30.9997 314.609 31.1397 314.189C31.9297 311.849 30.9597 308.109 33.3397 306.669C35.1397 305.579 37.7597 306.239 39.3697 307.439C43.5597 310.579 43.4597 316.419 44.2397 321.289C44.3297 321.869 45.1297 322.069 45.4797 321.639C46.3797 320.529 46.9797 319.069 47.6697 317.809C48.6297 316.049 49.6197 314.289 50.7797 312.669C51.4997 311.649 52.6297 309.929 53.9197 309.699C55.5797 309.409 55.4597 312.599 55.2397 313.659C54.7097 316.279 53.3397 318.579 52.6997 321.149C52.5997 321.549 52.8197 322.039 53.2197 322.129C54.2597 322.369 55.1697 321.949 56.0197 321.319C57.0897 320.529 57.8897 319.789 59.1897 319.469C61.0097 319.019 63.9697 319.029 65.0097 316.979C65.3797 316.249 65.2697 315.339 65.2597 314.539C65.2297 312.989 65.0797 311.449 65.0797 309.889C65.0597 306.849 65.6997 303.959 67.0497 301.279C69.2197 296.969 72.6997 293.249 76.3097 290.319C79.8897 287.409 83.9597 285.149 88.3197 283.959C96.6197 281.689 106.13 283.759 111.41 291.459C113.72 294.829 115.08 298.849 115.67 302.959C116.36 307.769 115.82 312.719 115.28 317.509C114.94 320.509 114.48 323.499 113.87 326.449H22.4297C21.4997 324.739 21.1797 322.729 21.8197 320.589L21.7997 320.609Z" fill="#212334"/>
<g style="mix-blend-mode:soft-light" opacity="0.2">
<path d="M94.1696 263.869C91.8696 265.319 89.0796 265.599 86.5396 266.289C84.3396 266.889 82.3096 267.859 80.5696 269.439C77.9096 271.849 76.3796 275.279 74.5996 278.409C72.4696 282.169 69.5396 285.869 65.4796 287.199C61.0096 288.659 57.1896 285.22 52.8996 284.53C49.4696 283.98 45.9596 284.499 42.9696 286.469C39.9596 288.459 37.7396 291.59 36.1096 294.9C34.5096 298.13 32.9096 301.359 29.6896 302.969C25.5296 305.049 20.8396 304.509 16.7496 302.559C15.3196 301.879 14.0596 301.049 12.8096 300.129C15.2596 299.539 17.8796 299.929 20.0796 301.509C21.7496 302.709 23.5996 303.249 25.4196 303.249C25.9896 303.249 26.5896 303.199 27.1396 303.079C29.3196 302.659 31.3096 301.449 32.7796 299.629C32.9396 299.429 33.0996 299.209 33.2596 298.989C34.1096 297.759 34.6996 296.279 34.9796 294.599L36.0596 287.84C36.3296 286.06 37.0196 284.489 37.9896 283.179C40.5996 279.579 45.3296 278.049 49.5696 280.099L56.8196 283.59C61.6796 285.93 67.3796 283.589 69.5696 278.369L70.8096 275.409C76.1696 262.639 87.8896 256.449 99.2196 257.389C97.9596 259.949 96.5296 262.379 94.1796 263.869H94.1696Z" fill="#F3FAFE"/>
</g>
<path d="M30.0996 327.01C30.0996 327.01 58.6096 331.54 65.4596 332.45C72.2996 333.37 44.1396 333.24 50.4296 337.6C56.7196 341.95 68.9896 345.54 91.1396 339.04C113.29 332.54 106.37 352.83 167.88 349.56C189.99 348.39 182.83 329.54 177.55 325.47C172.27 321.4 44.8096 319.49 30.1096 327L30.0996 327.01Z" fill="#9EC7EA"/>
<path d="M25.0195 326.47H178.12L175.71 317.44C168.14 310.14 157.68 306.56 147.04 308.53L141.38 309.57L138.33 310.11C137.67 310.23 137 310.28 136.36 310.28C134.94 310.28 133.54 310.01 132.23 309.47C130.03 308.56 128.1 306.95 126.73 304.73C124.8 301.6 122.53 298.93 120.06 296.74C119.1 295.85 118.11 295.06 117.08 294.35C111.51 290.38 105.11 288.41 98.6895 288.33C94.9295 288.26 91.1895 288.85 87.6095 290.11C78.9195 293.07 71.2095 299.8 66.9195 310.04L65.4295 313.54C62.7895 319.83 55.9395 322.62 50.1095 319.81L45.7095 317.69L41.4695 315.64C39.5395 314.7 37.5295 314.41 35.5995 314.6C30.5995 315.12 26.1995 319.11 25.2795 324.91L25.0295 326.46L25.0195 326.47Z" fill="#BDE2F3"/>
<path d="M45.7803 293.18C45.7803 294.95 47.1203 296.39 48.7603 296.39C50.4003 296.39 51.7403 294.95 51.7403 293.18C51.7403 291.41 50.4003 289.97 48.7603 289.97C47.1203 289.97 45.7803 291.41 45.7803 293.18Z" fill="#7DB6E0"/>
<path d="M82.7998 303.93C82.7998 305.7 84.1398 307.14 85.7798 307.14C87.4198 307.14 88.7598 305.7 88.7598 303.93C88.7598 302.16 87.4198 300.72 85.7798 300.72C84.1398 300.72 82.7998 302.16 82.7998 303.93Z" fill="#201A56"/>
<path opacity="0.15" d="M88.4502 272.74C88.4502 276.16 91.0302 278.93 94.2002 278.93C97.3702 278.93 99.9502 276.16 99.9502 272.74C99.9502 269.32 97.3702 266.55 94.2002 266.55C91.0302 266.55 88.4502 269.32 88.4502 272.74Z" fill="#212334"/>
<path d="M88.8398 271.27C88.8398 274.69 91.4198 277.46 94.5898 277.46C97.7598 277.46 100.34 274.69 100.34 271.27C100.34 267.85 97.7598 265.08 94.5898 265.08C91.4198 265.08 88.8398 267.85 88.8398 271.27Z" fill="#201A56"/>
<path d="M45.8895 324.78C45.8895 324.78 59.3495 306.52 53.2095 305.26C47.0595 304 45.0195 313.44 45.8895 324.78Z" fill="#201A56"/>
<g style="mix-blend-mode:soft-light" opacity="0.2">
<path d="M53.87 307.76C53.26 307.54 52.69 307.34 52.04 307.28C50.75 307.16 49.28 307.44 48.21 308.26C47.79 308.58 47.52 308.98 47.25 309.41C48.46 306.36 50.4 304.69 53.21 305.26C54.5 305.52 54.92 306.54 54.79 307.98C54.48 307.98 54.11 307.84 53.87 307.75V307.76Z" fill="#F3FAFE"/>
</g>
<path opacity="0.15" d="M48.7396 318.82C49.2996 318.69 49.8396 318.42 50.3496 318.09C48.1196 321.76 45.8896 324.78 45.8896 324.78C45.7096 322.4 45.6496 320.1 45.7396 317.97C46.4996 318.91 47.6396 319.08 48.7296 318.82H48.7396Z" fill="#212334"/>
<path d="M45.8897 324.78C45.8897 324.78 37.3997 300.23 28.0397 306.52C18.6797 312.82 45.8897 324.78 45.8897 324.78Z" fill="#7DB6E0"/>
<g style="mix-blend-mode:soft-light" opacity="0.2">
<path d="M39.2594 313.06C38.5594 312.39 38.1394 311.47 37.3994 310.82C36.6094 310.13 35.6894 309.7 34.7494 309.29C33.8594 308.9 32.8094 308.55 32.2594 307.64C31.9294 307.09 31.7794 306.21 32.0394 305.57C35.3294 306.12 38.3494 309.74 40.7294 313.7C40.1894 313.61 39.6694 313.45 39.2594 313.05V313.06Z" fill="#F3FAFE"/>
</g>
<path opacity="0.15" d="M34.4894 316.87C35.6894 317.07 37.3394 317.1 38.3494 317.89C38.8594 318.29 39.1894 318.9 39.7094 319.3C40.2194 319.68 40.8194 319.89 41.4094 320.04C42.3194 320.27 43.2194 320.33 44.0394 320.18C45.2094 322.83 45.8894 324.78 45.8894 324.78C45.8894 324.78 36.7194 320.75 30.8594 316.13C32.0494 316.48 33.3094 316.67 34.4794 316.86L34.4894 316.87Z" fill="#212334"/>
<path d="M45.8896 324.78C45.8896 324.78 77.1997 320.69 69.2997 315.34C61.3997 309.99 45.8896 324.78 45.8896 324.78Z" fill="#7DB6E0"/>
<g style="mix-blend-mode:soft-light" opacity="0.2">
<path d="M66.9601 317.23C65.4601 317.36 64.02 316.74 62.55 316.58C60.52 316.36 58.82 316.99 56.92 317.61C56.16 317.86 55.35 318.07 54.54 318.12C59.35 315.11 65.14 312.73 69.11 315.22C69.15 316.19 68.0101 317.14 66.9601 317.23Z" fill="#F3FAFE"/>
</g>
<path opacity="0.15" d="M54.8994 322.88C55.8494 322.82 56.7994 322.75 57.7394 322.55C58.7094 322.34 59.6594 322.01 60.6294 321.78C61.2294 321.64 61.8394 321.58 62.4594 321.57C55.2694 323.56 45.8994 324.78 45.8994 324.78C45.8994 324.78 47.3594 323.4 49.5794 321.64C49.6594 321.79 49.7594 321.94 49.8894 322.07C50.4594 322.66 51.3694 322.76 52.1094 322.85C53.0394 322.96 53.9694 322.94 54.8994 322.87V322.88Z" fill="#212334"/>
<path d="M325.64 61.33C325.45 61.66 325.05 61.76 324.74 61.55C324.44 61.35 324.35 60.92 324.54 60.6C325.64 58.66 326.36 56.43 326.57 54.01C326.79 51.43 326.41 48.93 325.55 46.7C325.42 46.36 325.55 45.96 325.87 45.81C326.2 45.64 326.6 45.81 326.74 46.17C327.68 48.61 328.1 51.33 327.86 54.15C327.63 56.79 326.85 59.22 325.65 61.34L325.64 61.33Z" fill="white"/>
<path d="M323.3 59.7302C323.11 60.0602 322.71 60.1602 322.4 59.9502C322.1 59.7502 322.01 59.3202 322.2 59.0002C323.07 57.4502 323.65 55.6602 323.81 53.7302C323.99 51.7002 323.7 49.7302 323.03 47.9602C322.9 47.6202 323.04 47.2302 323.35 47.0702C323.68 46.9002 324.08 47.0702 324.22 47.4302C324.96 49.4002 325.28 51.5902 325.09 53.8602C324.9 56.0102 324.27 58.0002 323.29 59.7302H323.3Z" fill="white"/>
<path d="M816.661 148.04C816.381 148.29 815.971 148.24 815.741 147.94C815.521 147.64 815.561 147.21 815.841 146.97C817.471 145.52 818.821 143.66 819.751 141.45C820.741 139.08 821.131 136.59 820.991 134.17C820.971 133.8 821.221 133.48 821.561 133.44C821.931 133.4 822.251 133.69 822.281 134.08C822.431 136.72 822.011 139.44 820.931 142.02C819.921 144.43 818.441 146.46 816.661 148.04Z" fill="white"/>
<path d="M814.93 145.72C814.65 145.97 814.24 145.92 814.01 145.62C813.79 145.32 813.83 144.89 814.11 144.65C815.41 143.49 816.49 142 817.23 140.23C818.01 138.37 818.33 136.41 818.24 134.5C818.22 134.13 818.47 133.81 818.81 133.77C819.18 133.73 819.51 134.02 819.53 134.42C819.63 136.55 819.28 138.73 818.41 140.8C817.58 142.77 816.38 144.43 814.94 145.72H814.93Z" fill="white"/>
<path d="M156.77 67.6497C174.3 74.6397 192.14 80.7897 210.36 85.3397C227.39 89.5897 245.17 93.1197 262.71 92.9997C277.83 92.8997 293.24 89.1097 304.67 77.8797C314.22 68.4897 320.44 53.7797 316.06 39.9697C312.17 27.6997 300.65 17.0097 288.02 19.2697C275.86 21.4397 267.94 34.5697 267.49 47.1897C266.97 61.7897 276.29 74.7497 287.26 82.2697C301.7 92.1697 319.67 93.9597 336.34 95.2697C412.33 101.25 487.16 81.5497 561.86 70.0097C627.66 59.8497 697.75 56.0197 761.09 81.5297C769.04 84.7297 776.82 88.3997 784.38 92.5297C791.39 96.3597 798.54 100.45 804.43 106.13C810.05 111.55 814.78 118.92 814.33 127.36C813.96 134.34 810.24 142.3 803.62 144.44C795.2 147.16 787.67 139.05 785.16 131.12C782.85 123.79 783.94 115.71 786.9 108.78C793.77 92.6997 808.74 85.0897 824.32 82.5497C832.8 81.1697 841.41 81.1397 849.97 81.2697C851.38 81.2897 851.38 78.9397 849.97 78.9197C834.14 78.6697 817.39 79.0897 803.07 87.2497C791.83 93.6497 783.08 105.96 781.86 119.8C780.79 132 788.23 148.54 801.58 147.24C812.39 146.18 818 132.4 816.22 122.05C813.63 107.01 799.06 98.0997 787.58 91.6597C773.17 83.5697 757.94 77.1997 742.31 72.4297C710.64 62.7697 677.51 59.5797 644.68 60.0497C571.88 61.0697 501 80.6597 428.99 89.6297C410.27 91.9597 391.46 93.5797 372.62 93.9297C353.91 94.2797 334.78 93.8197 316.27 90.5697C300.03 87.7197 283.1 80.8997 274.24 64.9597C266.66 51.3197 268.71 30.9597 283.14 23.3897C298.34 15.4197 314.57 31.7997 315.29 48.0097C316.02 64.4697 303.89 78.5997 290.69 84.9597C273.85 93.0697 254.25 91.0897 236.51 88.2997C218.45 85.4597 200.67 80.7697 183.25 74.9297C174.53 72.0097 165.9 68.7797 157.33 65.3697C156.01 64.8397 155.44 67.1197 156.75 67.6397L156.77 67.6497Z" fill="#22346A"/>
<path d="M125.16 76.4399C125.16 76.4399 139.83 86.2499 143.91 103.51C147.99 120.77 154.79 125.74 154.79 125.74C154.79 125.74 146.9 145.34 139.56 130.13C132.22 114.92 132.51 83.0199 125.16 76.4399Z" fill="#EEEFF8"/>
<path d="M129.201 335.83C129.201 335.83 127.331 332.96 128.061 329.95C128.791 326.94 131.151 323.8 131.151 323.8L137.021 324.43C137.021 324.43 138.951 325.02 138.231 328.55C138.231 328.55 150.551 329.81 152.051 333.61C153.881 338.26 147.971 337.81 147.971 337.81C147.971 337.81 134.911 339.25 129.191 335.82L129.201 335.83Z" fill="#212334"/>
<path opacity="0.1" d="M137.291 324.74C137.291 324.74 138.811 328.51 135.581 330.9C135.581 330.9 145.631 329.57 148.671 331.87C151.711 334.17 150.531 336.67 143.991 336.77C137.451 336.87 129.241 336.31 129.621 331.27C130.001 326.23 131.451 324.14 131.451 324.14L137.291 324.74Z" fill="white"/>
<path opacity="0.1" d="M137.251 331.54C137.251 331.54 148.021 330.01 149.161 333.59C150.301 337.17 137.251 331.54 137.251 331.54Z" fill="white"/>
<path d="M127.101 280.33C127.101 280.33 131.571 274.25 135.341 279.46C139.101 284.67 136.851 325.82 136.851 325.82C136.851 325.82 134.461 327.99 131.381 326.63C131.381 326.63 125.141 289.65 127.101 280.33Z" fill="#F4B297"/>
<path d="M134.41 323.35C130.28 324.17 128.89 322.14 128.89 322.14L122.33 257.31C122.33 257.31 119.98 239.19 115.33 222.53C115.07 221.58 114.8 220.63 114.52 219.7C109.34 202.32 104.02 200.85 103.28 188.67C103.28 188.67 129.09 168.8 141.92 174.35L138.83 258.39L138.41 321.16C138.41 321.16 139.34 322.38 134.4 323.35H134.41Z" fill="#212334"/>
<path opacity="0.65" d="M122.33 257.309C122.33 257.309 119.98 239.189 115.33 222.529L120.7 190.109L122.33 257.299V257.309Z" fill="#231F20"/>
<path d="M89.1499 333.07C89.1499 333.07 87.7499 329.91 88.9299 327.07C90.1099 324.23 92.9199 321.55 92.9199 321.55L98.6199 323.22C98.6199 323.22 100.43 324.15 99.1799 327.5C99.1799 327.5 111.14 330.93 112.03 334.95C113.12 339.86 107.36 338.37 107.36 338.37C107.36 338.37 94.2599 337.47 89.1499 333.08V333.07Z" fill="#212334"/>
<path opacity="0.1" d="M98.8304 323.57C98.8304 323.57 99.7604 327.56 96.2004 329.34C96.2004 329.34 106.31 329.81 108.96 332.62C111.61 335.43 110.06 337.68 103.59 336.62C97.1304 335.56 89.1104 333.55 90.2604 328.64C91.4104 323.74 93.1604 321.93 93.1604 321.93L98.8304 323.56V323.57Z" fill="white"/>
<path opacity="0.1" d="M97.75 330.27C97.75 330.27 108.61 330.67 109.18 334.41C109.76 338.15 97.75 330.27 97.75 330.27Z" fill="white"/>
<path d="M95.5901 277.96C95.5901 277.96 100.94 272.75 103.85 278.57C106.76 284.38 98.2301 324.56 98.2301 324.56C98.2301 324.56 95.5301 326.28 92.7101 324.39C92.7101 324.39 92.2301 286.81 95.6001 277.97L95.5901 277.96Z" fill="#F4B297"/>
<path d="M86.1699 183.32C86.1699 183.32 114.67 168.31 126.49 176.05L110.55 258.4L100.5 320.23C100.5 320.23 101.23 321.6 96.2099 321.69C92.0199 321.76 90.9499 319.51 90.9499 319.51L94.4299 254.41C94.4299 254.41 94.9499 233.98 92.4999 215.92C90.0499 197.86 85.0399 195.47 86.1799 183.32H86.1699Z" fill="#393C4C"/>
<path d="M111.38 78.19C111.38 78.19 92.8603 81.55 89.4003 87.64C82.1803 100.32 84.8903 182.77 88.4903 184.5C92.0903 186.23 135.84 193.91 146.91 185.81C145.05 163.86 134.59 85.35 126.57 79.07C118.55 72.79 111.37 78.18 111.37 78.18L111.38 78.19Z" fill="#EFE9DB"/>
<path d="M95.3003 84.6196L100.61 78.9896C100.61 78.9896 118.1 70.6396 130.19 81.7696C142.29 92.9096 138.78 106.41 138.78 106.41C138.78 106.41 133.97 131.94 138.33 138.66C145.07 149.05 150.26 173.68 141.82 182.72C133.65 191.47 100.43 195.62 92.1603 178.34C83.8903 161.07 96.0603 132.25 96.0603 132.25L95.3003 84.6096V84.6196Z" fill="#EEEFF8"/>
<path opacity="0.2" d="M110.01 85.71C110.01 85.71 113.68 126.61 116.64 139.53C119.61 152.46 107.83 179.46 109.08 184.63C110.33 189.79 115.85 190.41 115.85 190.41C115.85 190.41 96.3098 200.25 91.0398 190.38C85.7698 180.5 110.01 85.71 110.01 85.71Z" fill="#231F20"/>
<path d="M109.08 76.3799C109.08 76.3799 118.34 149.85 100.02 195.48C100.02 195.48 69.0096 191.85 72.9096 185.38C95.2196 148.32 88.4596 102.71 88.4596 102.71C88.4596 102.71 85.5696 77.9099 109.08 76.3899V76.3799Z" fill="#00A14B"/>
<path d="M144.46 189C139.68 190.55 134.41 187.25 134.41 187.25C146.41 157 129.28 130.56 129.12 88.2797C129.11 85.9797 128.66 83.8997 128.08 82.1397C126.96 78.7897 125.31 76.6297 125.15 76.4297C149.18 92.9397 140.27 121.14 140.27 121.14C140.27 121.14 149.55 175.94 144.45 189H144.46Z" fill="#00A14B"/>
<path opacity="0.1" d="M133.61 134.78C133.61 134.78 133.72 150.96 136.09 156.69C138.46 162.42 136.79 176.59 132.99 177.72C129.19 178.85 125.57 172.92 128.2 165.67C130.82 158.42 131.07 152.08 131.6 143.15C132.14 134.21 133.61 134.79 133.61 134.79V134.78Z" fill="#231F20"/>
<path opacity="0.2" d="M92.4296 143.05L91.6297 167.84C91.6297 167.84 98.7196 174.87 96.4996 177.06C94.2796 179.25 88.4897 184.5 88.4897 184.5L81.1396 144.55L103.31 102.95L92.4196 143.04L92.4296 143.05Z" fill="#231F20"/>
<path d="M84.6602 134.59C79.2102 130.57 72.9602 130.8 74.3802 138.03C77.6502 154.69 81.5202 171.07 81.5202 171.07L86.6502 169.19C86.6502 169.19 90.1002 138.61 84.6502 134.59H84.6602Z" fill="#F4B297"/>
<path d="M86.7699 168.979C86.7699 168.979 87.5199 172.24 88.6099 172.71C89.6999 173.18 94.0699 175.04 93.0599 176.46C92.0499 177.87 89.4699 176.75 89.4699 176.75C89.4699 176.75 93.7699 181.05 89.7999 182.69C84.9399 184.7 82.7399 182.75 82.2699 178.9C81.7999 175.05 81.3799 169.94 81.3799 169.94L86.7699 168.979Z" fill="#F4B297"/>
<path d="M102.65 79.1198C101.22 78.0598 99.19 77.2498 96.72 78.2198C81.74 84.1498 71.5 131.27 71.5 131.27L79.02 168.23L87.92 166.89V136.73C87.92 136.73 104.61 101.6 105.81 96.2698C106.66 92.4598 107.25 82.5198 102.65 79.1098V79.1198Z" fill="#EEEFF8"/>
<path opacity="0.2" d="M78.6102 166.04C78.5502 165.92 78.4102 165.21 78.4102 165.21L87.9301 162.12L87.9102 165.53L78.6201 166.03L78.6102 166.04Z" fill="#231F20"/>
<path d="M87.2895 164.72L79.0195 165.49C78.4195 165.55 77.9895 166.18 78.0495 166.92L78.1295 167.95C78.1895 168.68 78.7195 169.23 79.3195 169.18L87.5895 168.41C88.1895 168.35 88.6195 167.72 88.5595 166.98L88.4795 165.95C88.4195 165.22 87.8895 164.67 87.2995 164.72H87.2895Z" fill="#7178BA"/>
<path d="M99.8004 49.0498C99.5104 46.3198 101.01 43.8098 103.29 42.8598C103.24 42.6498 103.19 42.4498 103.16 42.2398C102.9 39.7698 104.39 37.5298 106.56 36.8998C106.52 34.4998 108.16 32.4198 110.42 32.1498C110.57 32.1298 110.72 32.1498 110.87 32.1498C111.35 29.7198 113.22 27.7798 115.64 27.4898C117.6 27.2498 119.44 28.1598 120.58 29.7098C121.2 29.1898 121.94 28.8298 122.78 28.7198C124.76 28.4798 126.57 29.7098 127.29 31.5998C127.74 31.0598 128.36 30.6698 129.09 30.5798C130.65 30.3898 132.05 31.5898 132.23 33.2698C132.41 34.9398 131.29 36.4499 129.73 36.6399C128.72 36.7599 127.77 36.2898 127.18 35.4798C126.54 36.8598 125.29 37.8798 123.76 38.0598C122.56 38.2098 121.42 37.8198 120.55 37.0698C119.67 38.2498 118.38 39.0698 116.87 39.2498C116.13 39.3398 115.42 39.2698 114.75 39.0598C114.24 40.0698 113.39 40.8698 112.34 41.2598C112.49 43.1398 111.63 44.8698 110.24 45.8298C110.5 46.4098 110.67 47.0398 110.74 47.7098C110.98 50.0198 109.95 52.1698 108.25 53.3498C108.5 53.8098 108.67 54.3198 108.73 54.8798C108.96 57.0298 107.52 58.9698 105.52 59.2198C103.52 59.4598 101.71 57.9198 101.49 55.7598C101.39 54.8198 101.63 53.9198 102.08 53.1798C100.86 52.2398 99.9904 50.7698 99.8104 49.0298L99.8004 49.0498Z" fill="#232750"/>
<path opacity="0.2" d="M125.4 77.9298C125.44 80.3398 122.1 82.3498 117.95 82.4298C113.8 82.5098 110.4 80.6198 110.36 78.2098C110.32 75.7998 113.61 74.7598 117.76 74.6898C121.91 74.6098 125.37 75.5298 125.4 77.9398V77.9298Z" fill="#231B53"/>
<path d="M111.97 61.73L111.99 77.22C111.99 77.22 114.09 82.02 119.24 80.72C124.39 79.42 123.89 75.79 123.89 75.79L121.93 65.91L111.97 61.74V61.73Z" fill="#F8AEAA"/>
<path d="M113.141 69.3999C113.141 69.3999 119.641 75.8199 123.681 74.9799L123.121 71.8799L113.141 69.3999Z" fill="#E8918F"/>
<path d="M107.69 61.2299C108.24 67.7499 116.66 73.8799 125.63 71.5499C131.63 69.9799 131.32 58.7599 130.46 51.5099C130.33 50.3899 130.19 49.3499 130.05 48.4699C129.75 46.5599 129.49 45.3299 129.49 45.3299C129.49 45.3299 118.85 41.4199 115.27 42.2099C111.68 43.0099 107.15 54.6999 107.7 61.2299H107.69Z" fill="#F8AEAA"/>
<path d="M126.01 64.3699C126.01 64.3699 127.82 66.0699 129.86 64.1299C129.86 64.1299 128.84 66.7399 127.46 66.1899C126.08 65.6399 126.01 64.3699 126.01 64.3699Z" fill="white"/>
<path opacity="0.5" d="M115.19 55.2098C116.78 54.2898 119.38 47.3198 119.38 47.3198C120.5 49.2898 126.27 50.7198 130.46 51.5198C130.33 50.3998 130.19 49.3598 130.05 48.4798L117.08 44.0498C117.08 44.0498 113.6 56.1498 115.19 55.2198V55.2098Z" fill="#E8918F"/>
<path d="M118.24 45.5498C118.24 45.5498 128.29 49.5398 133.05 49.0298C144.52 47.7898 137.93 32.9098 129.06 32.5298C117.13 32.0198 110.28 40.0098 110.28 40.0098C110.28 40.0098 106.47 38.1698 105.21 46.2698C103.06 60.0398 109.92 66.7598 109.92 66.7598C109.92 66.7598 108.24 58.3798 110.89 54.6098C112.3 52.5898 114.91 52.6398 114.67 55.1498C114.67 55.1798 114.67 55.2198 114.66 55.2498C114.26 58.6498 117.86 49.1698 118.25 45.5398L118.24 45.5498Z" fill="#232750"/>
<path d="M114.841 53.2699L126.381 54.6099C126.541 53.5899 126.871 52.8899 127.321 52.8299C127.541 52.7999 127.751 52.9299 127.971 53.1699L131.881 52.9299C132.051 52.4999 132.281 52.2199 132.561 52.1899C133.351 52.0899 134.181 53.9299 134.431 56.2899C134.681 58.6499 134.241 60.6399 133.461 60.7299C132.671 60.8299 131.841 58.9899 131.591 56.6299C131.491 55.6999 131.501 54.8399 131.591 54.1099L128.661 54.4699C128.901 55.1499 129.091 55.9899 129.191 56.9199C129.441 59.2799 129.001 61.2699 128.221 61.3699C127.431 61.4699 126.601 59.6299 126.351 57.2699C126.321 56.9599 126.301 56.6599 126.291 56.3699L115.461 54.4999L114.841 53.2599V53.2699Z" fill="#28264A"/>
<path d="M130.561 54.6997C130.561 54.6997 133.311 61.4697 130.451 61.4697C127.601 61.4697 130.561 54.6997 130.561 54.6997Z" fill="#F8AEAA"/>
<path d="M159.23 86.9697C159.23 86.9697 159.73 83.6897 158.91 82.7997C158.09 81.9097 154.79 78.3797 156.22 77.5197C157.65 76.6597 159.59 78.7597 159.59 78.7597C159.59 78.7597 159.19 74.2897 163.32 70.9697C167.45 67.6497 167.9 76.1297 166.93 79.8297C165.95 83.5297 164.48 88.3597 164.48 88.3597L159.23 86.9697Z" fill="#F4B297"/>
<path d="M154.79 125.74L166.5 87.3996L157.91 84.8696L143.64 110.23C147.56 112.71 150.92 123.05 154.79 125.74Z" fill="#EEEFF8"/>
<path opacity="0.2" d="M166.07 89.5696C166.08 89.6996 165.96 90.4096 165.96 90.4096L156.17 89.2196L157.43 86.1196L166.07 89.5696Z" fill="#231F20"/>
<path d="M157.69 87.1197L165.5 89.8997C166.06 90.0997 166.69 89.6997 166.9 89.0097L167.2 88.0397C167.41 87.3497 167.13 86.6297 166.57 86.4297L158.76 83.6497C158.2 83.4497 157.57 83.8497 157.36 84.5397L157.06 85.5097C156.85 86.1997 157.13 86.9197 157.69 87.1197Z" fill="#7178BA"/>
<path d="M180.629 68.5699C179.379 76.8299 177.529 83.3799 176.479 83.1999L175.489 83.0299C175.659 83.0599 175.849 82.9099 176.059 82.5999C176.209 82.3799 176.359 82.0799 176.529 81.6999C177.529 79.3899 178.739 74.3399 179.629 68.3999C180.569 62.1299 180.899 56.6799 180.539 54.3299C180.509 54.0899 180.459 53.8799 180.409 53.7099C180.299 53.3399 180.159 53.1399 179.989 53.1099L180.979 53.2799C182.029 53.4599 181.859 60.3099 180.609 68.5699H180.629Z" fill="#403F6B"/>
<path d="M180.549 54.3299C180.519 54.0899 180.469 53.8799 180.419 53.7099C180.309 53.3399 180.169 53.1399 179.999 53.1099H179.949C178.899 53.1099 177.079 59.5899 175.849 67.7499C174.679 75.4899 174.459 81.9899 175.299 82.9299L175.259 82.9999L175.479 83.0399C175.649 83.0699 175.839 82.9199 176.049 82.6099C176.199 82.3899 176.349 82.0899 176.519 81.7099C177.519 79.3999 178.729 74.3499 179.619 68.4099C180.559 62.1399 180.889 56.6899 180.529 54.3399L180.549 54.3299Z" fill="#313056"/>
<path d="M143.369 62.07C142.119 70.33 140.269 76.88 139.219 76.7C138.179 76.52 138.339 69.67 139.589 61.41C140.839 53.15 142.689 46.6 143.739 46.78C144.789 46.96 144.619 53.81 143.369 62.07Z" fill="#403F6B"/>
<path d="M145.759 47.1298C145.289 47.0498 144.649 48.3398 143.979 50.5498C143.889 49.0498 143.739 46.7798 143.739 46.7798L145.759 47.1298Z" fill="#403F6B"/>
<path d="M141.249 77.05L139.229 76.7L140.57 73.29C140.57 75.56 140.799 76.98 141.259 77.06L141.249 77.05Z" fill="#403F6B"/>
<path d="M145.759 47.13C145.289 47.05 144.649 48.34 143.979 50.55C143.159 53.23 142.299 57.24 141.619 61.76C140.929 66.33 140.579 70.46 140.569 73.28C140.569 75.55 140.799 76.97 141.259 77.05C142.309 77.23 144.159 70.68 145.409 62.42C146.659 54.16 146.819 47.31 145.779 47.13H145.759Z" fill="#313056"/>
<path d="M146.84 48.8101L145.87 48.6401C145.59 49.5301 145.26 50.8101 144.92 52.3901C144.36 54.9701 143.75 58.3401 143.19 62.0301C142.63 65.7201 142.23 69.1201 142 71.7601C141.86 73.3701 141.79 74.7101 141.8 75.6501L142.77 75.8201L162.31 79.2301L166.38 52.2201L146.84 48.8101Z" fill="#28264A"/>
<path d="M178.759 54.38L179.729 54.55C179.729 55.49 179.669 56.82 179.529 58.43C179.299 61.07 178.889 64.47 178.339 68.17C177.779 71.86 177.169 75.23 176.609 77.81C176.269 79.39 175.939 80.68 175.659 81.57L174.689 81.4L155.149 77.99L159.219 50.98L178.759 54.39V54.38Z" fill="#28264A"/>
<path d="M149.889 50.6802C149.869 52.7202 150.039 54.8002 150.059 56.8602C150.099 57.9002 150.039 58.9102 150.009 59.9402C149.929 60.9502 149.829 61.9702 149.699 62.9802C149.519 63.9802 149.32 64.9702 149.1 65.9702C148.82 66.9502 148.59 67.9402 148.24 68.9102C147.62 70.8602 146.839 72.7702 146.259 74.7102C146.279 72.6702 146.099 70.5902 146.089 68.5302C146.049 67.4902 146.109 66.4802 146.139 65.4502C146.219 64.4402 146.329 63.4202 146.449 62.4102C146.629 61.4102 146.829 60.4202 147.049 59.4302C147.319 58.4502 147.559 57.4602 147.909 56.4902C148.529 54.5402 149.309 52.6302 149.889 50.6902V50.6802Z" fill="#403F6B"/>
<path d="M153.489 51.3101C153.469 53.3501 153.639 55.4301 153.659 57.4901C153.699 58.5301 153.639 59.5401 153.609 60.5701C153.529 61.5801 153.429 62.6 153.299 63.61C153.119 64.61 152.919 65.6001 152.699 66.6001C152.419 67.5801 152.189 68.5701 151.839 69.5401C151.219 71.4901 150.439 73.4001 149.859 75.3401C149.879 73.3001 149.699 71.2201 149.689 69.1601C149.649 68.1201 149.709 67.11 149.739 66.08C149.819 65.07 149.929 64.0501 150.049 63.0401C150.229 62.0401 150.429 61.0501 150.649 60.0601C150.919 59.0801 151.159 58.0901 151.509 57.1201C152.129 55.1701 152.909 53.2601 153.489 51.3201V51.3101Z" fill="#403F6B"/>
<path d="M157.079 51.9399C157.059 53.9799 157.229 56.0599 157.249 58.1199C157.289 59.1599 157.229 60.17 157.199 61.2C157.119 62.21 157.019 63.2299 156.889 64.2399C156.709 65.2399 156.509 66.2299 156.289 67.2199C156.009 68.1999 155.779 69.1899 155.429 70.1599C154.809 72.1099 154.029 74.0199 153.449 75.9599C153.469 73.9199 153.289 71.8399 153.279 69.7799C153.239 68.7399 153.299 67.73 153.329 66.7C153.409 65.69 153.519 64.6699 153.639 63.6599C153.819 62.6599 154.019 61.6699 154.239 60.6799C154.509 59.6999 154.749 58.7099 155.099 57.7399C155.719 55.7899 156.499 53.8799 157.079 51.9399Z" fill="#403F6B"/>
<path d="M160.67 52.5601C160.65 54.6001 160.82 56.6801 160.84 58.7401C160.88 59.7801 160.82 60.7901 160.79 61.8201C160.71 62.8301 160.61 63.85 160.48 64.86C160.3 65.86 160.1 66.8501 159.88 67.8501C159.6 68.8301 159.37 69.8201 159.02 70.7901C158.4 72.7401 157.62 74.6501 157.04 76.5901C157.06 74.5501 156.88 72.4701 156.87 70.4101C156.83 69.3701 156.89 68.36 156.92 67.33C157 66.32 157.11 65.3001 157.23 64.2901C157.41 63.2901 157.61 62.3001 157.83 61.3101C158.1 60.3301 158.34 59.3401 158.69 58.3701C159.31 56.4201 160.09 54.5101 160.67 52.5701V52.5601Z" fill="#403F6B"/>
<path d="M164.26 53.1899C164.24 55.2299 164.41 57.3099 164.43 59.3699C164.47 60.4099 164.41 61.42 164.38 62.45C164.3 63.46 164.2 64.4799 164.07 65.4899C163.89 66.4899 163.69 67.4799 163.47 68.4799C163.19 69.4599 162.96 70.45 162.61 71.42C161.99 73.37 161.21 75.2799 160.63 77.2199C160.65 75.1799 160.47 73.0999 160.46 71.0399C160.42 69.9999 160.48 68.9899 160.51 67.9599C160.59 66.9499 160.7 65.93 160.82 64.92C161 63.92 161.2 62.9299 161.42 61.9399C161.69 60.9599 161.93 59.9699 162.28 58.9999C162.9 57.0499 163.68 55.14 164.26 53.2V53.1899Z" fill="#403F6B"/>
<path d="M167.859 53.8198C167.839 55.8598 168.019 57.9398 168.029 59.9998C168.069 61.0398 168.009 62.0498 167.979 63.0798C167.899 64.0898 167.799 65.1098 167.669 66.1198C167.489 67.1198 167.289 68.1098 167.069 69.1098C166.789 70.0898 166.559 71.0798 166.209 72.0498C165.589 73.9998 164.809 75.9098 164.229 77.8498C164.249 75.8098 164.069 73.7298 164.059 71.6698C164.019 70.6298 164.079 69.6198 164.109 68.5898C164.189 67.5798 164.299 66.5598 164.419 65.5498C164.599 64.5498 164.799 63.5598 165.019 62.5698C165.289 61.5898 165.529 60.5998 165.879 59.6298C166.499 57.6798 167.279 55.7698 167.859 53.8298V53.8198Z" fill="#403F6B"/>
<path d="M171.449 54.4399C171.429 56.4799 171.599 58.5599 171.619 60.6199C171.659 61.6599 171.599 62.67 171.569 63.7C171.489 64.71 171.389 65.7299 171.259 66.7399C171.079 67.7399 170.879 68.7299 170.659 69.7299C170.379 70.7099 170.149 71.7 169.799 72.67C169.179 74.62 168.399 76.5299 167.819 78.4699C167.839 76.4299 167.659 74.3499 167.649 72.2899C167.609 71.2499 167.669 70.2399 167.699 69.2099C167.779 68.1999 167.889 67.18 168.009 66.17C168.189 65.17 168.389 64.1799 168.609 63.1899C168.879 62.2099 169.119 61.2199 169.469 60.2499C170.089 58.2999 170.869 56.39 171.449 54.45V54.4399Z" fill="#403F6B"/>
<path d="M175.04 55.0698C175.02 57.1098 175.19 59.1898 175.21 61.2498C175.25 62.2898 175.19 63.2998 175.16 64.3298C175.08 65.3398 174.98 66.3598 174.85 67.3698C174.67 68.3698 174.47 69.3598 174.25 70.3598C173.97 71.3398 173.74 72.3298 173.39 73.2998C172.77 75.2498 171.99 77.1598 171.41 79.0998C171.43 77.0598 171.25 74.9798 171.24 72.9198C171.2 71.8798 171.26 70.8698 171.29 69.8398C171.37 68.8298 171.48 67.8098 171.6 66.7998C171.78 65.7998 171.98 64.8098 172.2 63.8198C172.47 62.8398 172.71 61.8498 173.06 60.8798C173.68 58.9298 174.46 57.0198 175.04 55.0798V55.0698Z" fill="#403F6B"/>
<path d="M862.52 117.71C859.17 111.78 845.34 95.1197 845.34 95.1197C845.34 95.1197 853.24 94.1597 850.8 93.3397C848.36 92.5197 844.89 91.8597 844.89 91.8597C844.89 91.8597 846.26 84.7597 838.84 86.9797C833.59 88.5497 829.08 93.0397 836.64 96.7397C843.36 100.03 850.2 133.21 860.26 130.57C864.4 129.48 867.45 126.41 862.53 117.7L862.52 117.71Z" fill="#F9B29B"/>
<path d="M911.32 56.25C917.85 56.29 916.83 70.91 930.75 75.03C944.67 79.14 956.92 82.2 956.71 98.66C956.5 115.12 943.63 133.51 928.29 120.32C912.96 107.13 918.96 97.69 910.5 96.01C902.04 94.34 888.34 56.09 911.32 56.25Z" fill="#28264A"/>
<path d="M929.72 330.57C934.79 327.14 943.86 316.41 943.86 316.41C943.86 316.41 945.89 314.76 947.63 316.73C948.71 317.95 950.24 322.15 951.24 325.15C951.83 326.91 950.74 328.36 949.34 329.45C942.44 334.82 935.41 338.6 928.83 339.44C927.26 339.64 924.66 334 929.73 330.56L929.72 330.57Z" fill="#212334"/>
<path d="M930.739 243.68C930.739 243.68 930.739 243.7 930.759 243.73C939.419 267.23 942.479 301.13 946.469 319.29C946.359 319.35 947.309 321.05 944.129 321.94C940.859 322.85 940.119 321.41 940.119 321.41C940.119 321.41 913.009 246.79 907.969 232.47C907.619 231.47 907.339 230.52 907.169 229.66C904.749 218.63 913.999 216.34 920.729 224.59C921.839 225.94 922.919 227.46 923.929 229.12C924.339 229.79 924.739 230.48 925.149 231.21V231.23C926.409 233.48 927.599 235.94 928.719 238.58L928.819 238.85C929.159 239.59 929.469 240.35 929.769 241.11L929.829 241.28C930.139 242.06 930.429 242.86 930.739 243.68Z" fill="#F4B297"/>
<path d="M869.77 329.07C875.7 328.19 888.08 322.44 888.08 322.44C888.08 322.44 890.56 321.84 891.39 324.4C891.9 325.99 891.69 330.5 891.45 333.67C891.31 335.53 889.77 336.37 888.07 336.75C879.72 338.58 871.87 338.91 865.56 336.77C864.05 336.26 863.84 329.96 869.78 329.08L869.77 329.07Z" fill="#212334"/>
<path d="M895.3 258.36C892.26 258.36 889.03 257.21 886.22 255.28C884.76 284.19 882.76 325.32 882.76 325.32C882.76 325.32 882.89 326.97 886.21 327.59C889.44 328.19 889.23 326.22 889.35 326.21C892.43 309.22 901.43 280.23 903.6 255.97C901.29 257.48 898.53 258.36 895.3 258.36Z" fill="#F4B297"/>
<path d="M894.9 149.63C894.9 149.63 882.37 189.06 880.22 214.01C878.07 238.97 867.65 256.62 873.16 264.53C878.68 272.44 895.54 279.14 900.14 270.01C904.74 260.88 919.73 178.32 919.73 178.32L894.89 149.62L894.9 149.63Z" fill="#212334"/>
<path d="M923.62 157.34C923.62 157.34 936.21 166.37 934.18 207.8C934.18 207.8 950.12 270.79 943.38 276.39C936.64 282 924.99 289.58 918.55 276.39C912.11 263.2 903.1 208.56 900.4 183.64C897.69 158.72 900.4 152.64 900.4 152.64C900.4 152.64 914.84 151.72 923.63 157.33L923.62 157.34Z" fill="#393C4C"/>
<path d="M926.24 157.9C923.75 161.1 913.58 162.78 904.54 162.59C896.89 162.42 890.04 160.9 889.41 157.82C888.79 154.81 888.36 143.27 888.59 131.08V131.06C888.66 126.02 888.85 120.89 889.19 116.19V116.14C889.82 106.88 891 99.3099 892.93 97.6499C893.02 97.5699 893.12 97.49 893.21 97.41C898.38 93.06 903.19 91.96 906.96 91.38C913.19 90.38 915.75 95.0799 921.49 97.8099C927.23 100.53 930.84 151.99 926.24 157.9Z" fill="#00A14B"/>
<path d="M901.07 83.93V96.67C901.07 96.67 908.43 102.85 912.57 95.56L909.7 77.5L901.07 83.93Z" fill="#F4B297"/>
<path d="M903.199 91.2596C903.199 91.2596 900.059 92.4596 898.589 95.3596C897.579 97.3496 901.749 107.58 901.749 107.58C901.749 107.58 915.239 101.6 913.789 96.2296C912.349 90.8596 910.209 90.6396 903.199 91.2596Z" fill="#F4B297"/>
<path d="M901.07 90.8596V83.9296L908.66 78.8496C908.66 78.8496 906.74 89.9896 901.07 90.8596Z" fill="#E69B81"/>
<path d="M912.1 76.0198C912.1 76.0198 910.49 77.3798 910.03 79.8498C909.57 82.3198 902 90.8298 896.94 88.1098C891.88 85.3898 890.94 73.6698 893.36 66.3698C895.77 59.0698 900.26 53.1398 906.01 56.9698C911.76 60.7998 912.1 70.3298 912.1 70.3298C912.1 70.3298 917.96 71.1998 912.1 76.0198Z" fill="#F4B297"/>
<path d="M892.94 72.6096C892.94 72.6096 889.68 75.1496 890.93 76.6996C892.18 78.2596 892.74 77.0596 892.74 77.0596L892.94 72.5996V72.6096Z" fill="#F4B297"/>
<path d="M916.1 65.0899C914.42 52.6999 908.6 53.0599 902.34 54.2599C896.08 55.4599 891.71 51.6099 891.71 51.6099C891.71 51.6099 882.31 52.9299 889.58 62.3199C893.85 67.8399 900.33 66.1199 904.94 63.7699C908.13 68.3299 917.56 75.9499 916.09 65.0899H916.1Z" fill="#28264A"/>
<path d="M911.96 68.32C911.96 68.32 908.36 73.3 908.45 80.29C904.82 81.68 905.18 70.8 908.5 63.7C911.82 56.6 911.96 68.31 911.96 68.31V68.32Z" fill="#28264A"/>
<path d="M875.039 265.69C875.039 265.69 887.119 277 897.409 275.32C907.699 273.64 919.779 286.15 926.049 283.02C932.309 279.89 910.159 229.11 907.259 220.2C904.349 211.29 898.759 170.62 898.759 170.62C898.759 170.62 904.479 230.69 901.059 228.94C897.639 227.18 893.609 201.91 893.609 201.91C893.609 201.91 903.679 249.56 889.579 250.77C875.479 251.97 873.019 263.77 875.039 265.69Z" fill="#181A29"/>
<path d="M860.91 79.79C860.91 88.25 860.04 95.11 858.97 95.11H857.96C858.13 95.11 858.31 94.93 858.47 94.58C858.58 94.33 858.7 94 858.8 93.6C859.45 91.12 859.89 85.87 859.89 79.79C859.89 73.37 859.39 67.87 858.68 65.59C858.61 65.36 858.53 65.16 858.46 64.99C858.3 64.64 858.13 64.46 857.95 64.46H858.96C860.03 64.46 860.9 71.32 860.9 79.79H860.91Z" fill="#403F6B"/>
<path d="M858.69 65.59C858.62 65.36 858.54 65.16 858.47 64.99C858.31 64.64 858.141 64.46 857.961 64.46H857.91C856.86 64.64 856.021 71.43 856.021 79.79C856.021 88.15 856.78 94.25 857.76 95.03L857.73 95.11H857.961C858.131 95.11 858.31 94.93 858.47 94.58C858.58 94.33 858.7 94 858.8 93.6C859.45 91.12 859.891 85.87 859.891 79.79C859.891 73.37 859.39 67.87 858.68 65.59H858.69Z" fill="#313056"/>
<path d="M820.81 95.1097C821.882 95.1097 822.75 88.2507 822.75 79.7897C822.75 71.3287 821.882 64.4697 820.81 64.4697C819.739 64.4697 818.87 71.3287 818.87 79.7897C818.87 88.2507 819.739 95.1097 820.81 95.1097Z" fill="#403F6B"/>
<path d="M822.881 64.4697C822.401 64.4697 821.961 65.8697 821.621 68.1897C821.301 66.6997 820.811 64.4697 820.811 64.4697H822.881Z" fill="#403F6B"/>
<path d="M822.881 95.12H820.811L821.631 91.48C821.971 93.75 822.411 95.12 822.881 95.12Z" fill="#403F6B"/>
<path d="M822.88 64.47C822.4 64.47 821.96 65.87 821.62 68.19C821.21 71 820.95 75.16 820.95 79.79C820.95 84.42 821.22 88.66 821.63 91.47C821.97 93.74 822.41 95.11 822.88 95.11C823.95 95.11 824.82 88.25 824.82 79.79C824.82 71.33 823.95 64.46 822.88 64.46V64.47Z" fill="#313056"/>
<path d="M824.211 65.96H823.211C823.061 66.89 822.931 68.23 822.831 69.87C822.661 72.55 822.561 76.01 822.561 79.8C822.561 83.59 822.661 87.05 822.831 89.72C822.931 91.36 823.071 92.7 823.211 93.64H844.221V65.97H824.201L824.211 65.96Z" fill="#28264A"/>
<path d="M856.911 65.96H857.901C858.051 66.89 858.181 68.23 858.281 69.87C858.451 72.55 858.551 76.01 858.551 79.8C858.551 83.59 858.451 87.05 858.281 89.72C858.181 91.36 858.041 92.7 857.901 93.64H836.891V65.97H856.911V65.96Z" fill="#28264A"/>
<path d="M827.54 67.29C827.83 69.33 828.31 71.37 828.64 73.42C828.84 74.45 828.93 75.47 829.06 76.5C829.13 77.53 829.18 78.56 829.21 79.58C829.18 80.61 829.13 81.64 829.06 82.66C828.93 83.69 828.84 84.71 828.64 85.74C828.32 87.79 827.83 89.84 827.54 91.88C827.25 89.84 826.76 87.8 826.44 85.74C826.24 84.71 826.15 83.69 826.02 82.66C825.95 81.63 825.9 80.6 825.87 79.58C825.9 78.55 825.95 77.52 826.02 76.5C826.14 75.47 826.24 74.45 826.44 73.42C826.77 71.37 827.25 69.32 827.54 67.29Z" fill="#403F6B"/>
<path d="M831.22 67.29C831.51 69.33 831.99 71.37 832.32 73.42C832.52 74.45 832.61 75.47 832.74 76.5C832.81 77.53 832.86 78.56 832.89 79.58C832.86 80.61 832.81 81.64 832.74 82.66C832.61 83.69 832.52 84.71 832.32 85.74C831.99 87.79 831.51 89.84 831.22 91.88C830.93 89.84 830.44 87.8 830.12 85.74C829.92 84.71 829.83 83.69 829.7 82.66C829.63 81.63 829.58 80.6 829.55 79.58C829.58 78.55 829.63 77.52 829.7 76.5C829.83 75.47 829.92 74.45 830.12 73.42C830.45 71.37 830.93 69.32 831.22 67.29Z" fill="#403F6B"/>
<path d="M834.901 67.29C835.191 69.33 835.67 71.37 836 73.42C836.2 74.45 836.29 75.47 836.42 76.5C836.49 77.53 836.54 78.56 836.57 79.58C836.54 80.61 836.49 81.64 836.42 82.66C836.29 83.69 836.2 84.71 836 85.74C835.67 87.79 835.191 89.84 834.901 91.88C834.611 89.84 834.12 87.8 833.8 85.74C833.6 84.71 833.51 83.69 833.38 82.66C833.31 81.63 833.26 80.6 833.23 79.58C833.26 78.55 833.31 77.52 833.38 76.5C833.51 75.47 833.6 74.45 833.79 73.42C834.11 71.37 834.601 69.32 834.891 67.29H834.901Z" fill="#403F6B"/>
<path d="M838.58 67.29C838.87 69.33 839.35 71.37 839.68 73.42C839.88 74.45 839.97 75.47 840.1 76.5C840.17 77.53 840.22 78.56 840.25 79.58C840.22 80.61 840.17 81.64 840.1 82.66C839.97 83.69 839.88 84.71 839.68 85.74C839.36 87.79 838.87 89.84 838.58 91.88C838.29 89.84 837.8 87.8 837.48 85.74C837.28 84.71 837.19 83.69 837.06 82.66C836.99 81.63 836.94 80.6 836.91 79.58C836.94 78.55 836.99 77.52 837.06 76.5C837.19 75.47 837.28 74.45 837.48 73.42C837.8 71.37 838.29 69.32 838.58 67.29Z" fill="#403F6B"/>
<path d="M842.26 67.29C842.55 69.33 843.03 71.37 843.36 73.42C843.56 74.45 843.65 75.47 843.78 76.5C843.85 77.53 843.9 78.56 843.93 79.58C843.9 80.61 843.85 81.64 843.78 82.66C843.65 83.69 843.56 84.71 843.36 85.74C843.04 87.79 842.55 89.84 842.26 91.88C841.97 89.84 841.48 87.8 841.16 85.74C840.96 84.71 840.87 83.69 840.74 82.66C840.67 81.63 840.62 80.6 840.59 79.58C840.62 78.55 840.67 77.52 840.74 76.5C840.86 75.47 840.96 74.45 841.16 73.42C841.48 71.37 841.97 69.32 842.26 67.29Z" fill="#403F6B"/>
<path d="M845.94 67.29C846.23 69.33 846.71 71.37 847.04 73.42C847.24 74.45 847.33 75.47 847.45 76.5C847.52 77.53 847.57 78.56 847.6 79.58C847.57 80.61 847.52 81.64 847.45 82.66C847.32 83.69 847.23 84.71 847.03 85.74C846.71 87.79 846.22 89.84 845.93 91.88C845.64 89.84 845.15 87.8 844.83 85.74C844.63 84.71 844.54 83.69 844.41 82.66C844.34 81.63 844.29 80.6 844.26 79.58C844.29 78.55 844.34 77.52 844.41 76.5C844.54 75.47 844.63 74.45 844.83 73.42C845.16 71.37 845.64 69.32 845.93 67.29H845.94Z" fill="#403F6B"/>
<path d="M849.62 67.29C849.91 69.33 850.39 71.37 850.72 73.42C850.92 74.45 851.01 75.47 851.14 76.5C851.21 77.53 851.26 78.56 851.29 79.58C851.26 80.61 851.21 81.64 851.14 82.66C851.01 83.69 850.92 84.71 850.72 85.74C850.4 87.79 849.91 89.84 849.62 91.88C849.33 89.84 848.84 87.8 848.52 85.74C848.32 84.71 848.23 83.69 848.1 82.66C848.03 81.63 847.98 80.6 847.95 79.58C847.98 78.55 848.03 77.52 848.1 76.5C848.22 75.47 848.32 74.45 848.51 73.42C848.84 71.37 849.32 69.32 849.61 67.29H849.62Z" fill="#403F6B"/>
<path d="M853.3 67.29C853.59 69.33 854.07 71.37 854.4 73.42C854.6 74.45 854.69 75.47 854.82 76.5C854.89 77.53 854.94 78.56 854.97 79.58C854.94 80.61 854.89 81.64 854.82 82.66C854.69 83.69 854.6 84.71 854.4 85.74C854.08 87.79 853.59 89.84 853.3 91.88C853.01 89.84 852.52 87.8 852.2 85.74C852 84.71 851.91 83.69 851.78 82.66C851.71 81.63 851.66 80.6 851.63 79.58C851.66 78.55 851.71 77.52 851.78 76.5C851.91 75.47 852 74.45 852.2 73.42C852.52 71.37 853.01 69.32 853.3 67.29Z" fill="#403F6B"/>
<path d="M891.38 100.69L862.87 117.61L859.64 130.69C859.64 130.69 886.66 127.18 887.79 118.49C888.81 110.62 891.38 100.69 891.38 100.69Z" fill="#F9A98D"/>
<path d="M895.009 119.04C893.479 122.63 880.699 125.99 880.369 126.32C877.589 129.16 872.049 109.47 876.789 105.02C881.549 100.56 896.369 95.3599 896.369 95.3599C896.369 95.3799 896.369 95.3899 896.369 95.4099C896.739 97.6399 898.669 110.43 895.009 119.03V119.04Z" fill="#00A14B"/>
<path d="M921.86 117.6L924.2 143.19C924.2 143.19 934.99 152.82 937.68 143.65C940.38 134.48 936.73 121.2 936.73 121.2L921.85 117.6H921.86Z" fill="#00A14B"/>
<path d="M912.77 102.08C911.99 109.1 917.88 121.79 919.99 128.41C922.1 135.03 939.9 136.85 941.06 131.49C942.21 126.13 939.33 116.96 933.39 108.33C926.58 98.4298 913.97 91.2498 912.77 102.08Z" fill="#00A14B"/>
<path d="M901.22 174.06C901.22 174.06 896.34 175.46 898.06 172.14C899.17 170.01 904.58 169.99 904.58 169.99L924.62 141.48C931.11 139.2 937.46 140.23 937.56 142.97C937.88 152.21 921.42 162.24 912.47 171.8C910.99 173.38 911.38 178.78 910.51 179.85C905.37 186.2 900.73 190.37 898.69 187.9C895.25 183.73 901.22 174.07 901.22 174.07V174.06Z" fill="#FBC9B8"/>
<path opacity="0.14" d="M916.87 117.15L922.65 131.35L923.48 142.22L911.52 159.3C911.52 159.3 915.64 147.54 916.06 140.66C916.47 133.78 921.22 142.44 909.25 138.66C897.29 134.89 899.76 132.67 899.76 132.67C899.76 132.67 911.93 136.22 913.58 131.56C915.23 126.9 907.39 119.36 916.88 117.14L916.87 117.15Z" fill="#181D3F"/>
<path d="M151.38 0.0297852H223.92C226.39 0.0297852 228.39 2.17978 228.39 4.83978V25.6598C228.39 28.3198 226.39 30.4698 223.92 30.4698H166.94C160.74 34.2798 151.18 40.1498 151.18 40.1498L154.33 30.4698H151.38C148.91 30.4698 146.91 28.3198 146.91 25.6598V4.83978C146.91 2.17978 148.91 0.0297852 151.38 0.0297852Z" fill="#DEF2FA"/>
<g opacity="0.5">
<path d="M191.7 9.33984H155.81C155.35 9.33984 154.97 9.76984 154.97 10.3098C154.97 10.8498 155.34 11.2798 155.81 11.2798H191.7C192.16 11.2798 192.54 10.8498 192.54 10.3098C192.54 9.76984 192.17 9.33984 191.7 9.33984Z" fill="url(#paint0_radial_3142_506)"/>
<path d="M196.67 9.33984H194.39C193.93 9.33984 193.55 9.76984 193.55 10.3098C193.55 10.8498 193.92 11.2798 194.39 11.2798H196.67C197.13 11.2798 197.51 10.8498 197.51 10.3098C197.51 9.76984 197.14 9.33984 196.67 9.33984Z" fill="url(#paint1_radial_3142_506)"/>
<path d="M175.79 19.6797H155.81C155.35 19.6797 154.97 20.1097 154.97 20.6497C154.97 21.1897 155.34 21.6197 155.81 21.6197H175.79C176.25 21.6197 176.63 21.1897 176.63 20.6497C176.63 20.1097 176.26 19.6797 175.79 19.6797Z" fill="url(#paint2_radial_3142_506)"/>
<path d="M184.439 19.6797H178.489C178.029 19.6797 177.649 20.1097 177.649 20.6497C177.649 21.1897 178.019 21.6197 178.489 21.6197H184.439C184.899 21.6197 185.279 21.1897 185.279 20.6497C185.279 20.1097 184.909 19.6797 184.439 19.6797Z" fill="url(#paint3_radial_3142_506)"/>
<path d="M183.61 16.4498H196.68C197.14 16.4498 197.52 16.0198 197.52 15.4798C197.52 14.9398 197.15 14.5098 196.68 14.5098H183.61C183.15 14.5098 182.77 14.9398 182.77 15.4798C182.77 16.0198 183.14 16.4498 183.61 16.4498Z" fill="url(#paint4_radial_3142_506)"/>
<path d="M155.81 16.4498H180.91C181.37 16.4498 181.75 16.0198 181.75 15.4798C181.75 14.9398 181.38 14.5098 180.91 14.5098H155.81C155.35 14.5098 154.97 14.9398 154.97 15.4798C154.97 16.0198 155.34 16.4498 155.81 16.4498Z" fill="url(#paint5_radial_3142_506)"/>
</g>
<defs>
<radialGradient id="paint0_radial_3142_506" cx="0" cy="0" r="1" gradientUnits="userSpaceOnUse" gradientTransform="translate(126.692 -33.2802) scale(165.593 192.55)">
<stop offset="0.1" stop-color="#17578A"/>
<stop offset="1" stop-color="#173F6C"/>
</radialGradient>
<radialGradient id="paint1_radial_3142_506" cx="0" cy="0" r="1" gradientUnits="userSpaceOnUse" gradientTransform="translate(126.691 -358.501) scale(165.603 192.56)">
<stop offset="0.1" stop-color="#17578A"/>
<stop offset="1" stop-color="#173F6C"/>
</radialGradient>
<radialGradient id="paint2_radial_3142_506" cx="0" cy="0" r="1" gradientUnits="userSpaceOnUse" gradientTransform="translate(126.692 -33.2804) scale(165.602 192.56)">
<stop offset="0.1" stop-color="#17578A"/>
<stop offset="1" stop-color="#173F6C"/>
</radialGradient>
<radialGradient id="paint3_radial_3142_506" cx="0" cy="0" r="1" gradientUnits="userSpaceOnUse" gradientTransform="translate(126.691 -33.2804) scale(165.593 192.55)">
<stop offset="0.1" stop-color="#17578A"/>
<stop offset="1" stop-color="#173F6C"/>
</radialGradient>
<radialGradient id="paint4_radial_3142_506" cx="0" cy="0" r="1" gradientUnits="userSpaceOnUse" gradientTransform="translate(126.692 -33.2703) scale(165.584 192.54)">
<stop offset="0.1" stop-color="#17578A"/>
<stop offset="1" stop-color="#173F6C"/>
</radialGradient>
<radialGradient id="paint5_radial_3142_506" cx="0" cy="0" r="1" gradientUnits="userSpaceOnUse" gradientTransform="translate(126.692 -33.2703) scale(165.584 192.54)">
<stop offset="0.1" stop-color="#17578A"/>
<stop offset="1" stop-color="#173F6C"/>
</radialGradient>
</defs>
</svg>
