<svg width="238" height="53" viewBox="0 0 238 53" fill="none" xmlns="http://www.w3.org/2000/svg">
<path d="M6.97047 36.9298C8.83047 38.1098 10.7305 39.1998 12.6605 40.2498C13.7705 41.0698 15.0205 41.6298 16.2005 42.3298C18.7505 43.8298 21.3405 45.2698 23.9005 46.7498C26.5505 48.2898 29.2105 49.8098 31.8505 51.3798C34.2905 52.8298 36.9405 53.2998 39.7305 52.7098C44.8705 51.6098 48.3505 47.5798 48.5405 42.3298C48.6705 38.8198 47.4305 35.8098 44.6605 33.5298C44.3005 33.1098 43.8505 32.7998 43.3805 32.5198C41.0005 31.1398 38.6205 29.7798 36.2405 28.3998C35.4405 27.9398 34.6405 27.4598 33.7605 26.9398C36.8405 25.1598 39.7905 23.3898 42.8005 21.7298C46.9605 19.4398 49.3105 14.5298 48.3705 9.85981C46.8605 2.33981 38.6405 -1.39021 31.8705 2.45979C23.2005 7.38979 14.5705 12.3698 5.96046 17.3998C-0.229535 21.0198 -1.25953 29.6898 3.81047 34.7698C4.73047 35.6898 5.89047 36.2498 6.97047 36.9398V36.9298Z" fill="#40D04F"/>
<path d="M33.7503 26.9296L22.9903 20.8096C22.9903 20.8096 16.2203 16.8996 20.6703 9.08957L28.6603 4.32959L41.1603 22.5796C41.1603 22.5796 34.7603 26.3396 33.7503 26.9296Z" fill="url(#paint0_linear_0_1)"/>
<path d="M31.0701 13.6999C31.5727 13.6999 31.9801 13.2925 31.9801 12.7899C31.9801 12.2873 31.5727 11.8799 31.0701 11.8799C30.5676 11.8799 30.1602 12.2873 30.1602 12.7899C30.1602 13.2925 30.5676 13.6999 31.0701 13.6999Z" fill="white"/>
<path d="M35.1004 13.6999C35.603 13.6999 36.0104 13.2925 36.0104 12.7899C36.0104 12.2873 35.603 11.8799 35.1004 11.8799C34.5979 11.8799 34.1904 12.2873 34.1904 12.7899C34.1904 13.2925 34.5979 13.6999 35.1004 13.6999Z" fill="white"/>
<path d="M38.9706 13.6999C39.4731 13.6999 39.8806 13.2925 39.8806 12.7899C39.8806 12.2873 39.4731 11.8799 38.9706 11.8799C38.468 11.8799 38.0605 12.2873 38.0605 12.7899C38.0605 13.2925 38.468 13.6999 38.9706 13.6999Z" fill="white"/>
<path d="M164.991 16.1705C164.671 13.6605 163.361 12.3805 160.751 11.9405C157.611 11.4105 154.611 11.9805 151.671 13.0305C151.331 13.1505 150.791 13.1705 150.521 12.9905C149.371 12.2305 148.101 11.8805 146.741 11.8105C143.401 11.6305 140.201 12.2005 137.091 13.3505C136.371 13.6105 136.181 13.9505 136.191 14.6605C136.221 23.3705 136.211 32.0705 136.211 40.7805V41.7005C137.911 41.7005 139.511 41.7705 141.101 41.6805C142.421 41.6105 142.471 41.4605 142.471 40.2205C142.471 33.1205 142.471 26.0305 142.471 18.9305C142.471 17.6505 142.611 17.4705 143.901 17.1205C144.091 17.0705 144.291 17.0405 144.491 17.0105C146.741 16.5705 147.601 17.1605 147.611 19.3205C147.661 25.4105 147.651 31.4905 147.661 37.5805C147.661 38.9405 147.661 40.3105 147.661 41.7505C149.291 41.7505 150.831 41.8205 152.371 41.7305C153.901 41.6405 153.941 41.5105 153.951 40.0105C153.951 32.9705 153.951 25.9305 153.951 18.8905C153.951 17.6105 153.971 17.4805 155.291 17.2405C158.141 16.7005 159.031 17.1705 159.021 19.9105C159.011 26.9005 159.021 33.8805 159.021 40.8705C159.021 41.1605 159.021 41.4505 159.021 41.7205C160.711 41.7205 162.311 41.7905 163.901 41.7005C165.241 41.6205 165.311 41.4605 165.311 40.1805C165.311 33.5505 165.331 26.9205 165.301 20.2805C165.301 18.9205 165.181 17.5505 165.011 16.2005L164.991 16.1705Z" fill="#343A40"/>
<path d="M130.081 15.3104C129.701 13.5904 128.551 12.4804 126.721 12.0804C126.051 11.9404 125.371 11.8203 124.691 11.7703C121.981 11.5803 119.411 12.1304 116.891 13.0404C116.581 13.1504 116.071 13.1603 115.821 12.9903C114.651 12.2003 113.351 11.8604 111.961 11.7904C108.621 11.6204 105.421 12.1904 102.311 13.3604C101.661 13.6004 101.471 13.8904 101.481 14.5404C101.501 23.3304 101.501 32.1204 101.501 40.9104V41.6704C103.201 41.6704 104.831 41.7303 106.441 41.6503C107.681 41.5903 107.751 41.4304 107.751 40.2204C107.751 33.2904 107.751 26.3504 107.751 19.4204C107.751 17.5404 108.021 17.2204 110.001 16.9404C110.451 16.8804 110.921 16.8804 111.371 16.9204C112.161 17.0104 112.711 17.4103 112.791 18.2103C112.871 19.0003 112.941 19.7904 112.941 20.5804C112.951 27.3204 112.941 34.0604 112.941 40.8104V41.7204C114.621 41.7204 116.171 41.7904 117.711 41.7004C119.161 41.6104 119.221 41.4704 119.231 40.0904C119.231 37.3904 119.231 34.6904 119.231 31.9804C119.231 27.4804 119.231 22.9704 119.241 18.4704C119.241 18.1804 119.321 17.7304 119.521 17.6104C120.681 16.9504 122.001 16.7503 123.231 17.2103C124.391 17.6403 124.241 18.7903 124.281 19.7703C124.281 19.9303 124.281 20.1004 124.281 20.2604C124.281 27.1104 124.281 33.9604 124.281 40.8104V41.6503C126.011 41.6503 127.661 41.7104 129.311 41.6304C130.441 41.5804 130.571 41.3704 130.571 40.3104C130.571 33.2104 130.581 26.1203 130.541 19.0203C130.541 17.7803 130.341 16.5104 130.081 15.2904V15.3104Z" fill="#343A40"/>
<path d="M94.2603 13.4802C92.1703 11.8402 89.6603 11.5602 87.1203 11.7802C83.2803 12.1002 80.7903 14.2102 79.4003 17.5502C78.0603 20.7502 77.9203 24.1302 78.0103 27.5202C78.0103 28.6102 77.9503 29.7102 78.0203 30.7902C78.2003 33.4302 78.4803 36.0602 79.6703 38.5102C80.5703 40.3602 82.0002 41.6102 84.1403 41.9702C85.3103 42.1702 86.5203 42.3102 87.7103 42.3002C92.2303 42.2802 95.3103 40.1902 96.5303 36.0402C98.3403 29.9002 98.2203 23.6902 96.7103 17.5102C96.3303 15.9602 95.5803 14.5302 94.2503 13.4702L94.2603 13.4802ZM90.2103 34.8002C90.1403 35.3502 89.8403 35.8802 89.5803 36.3902C89.2103 37.0902 88.5403 37.4102 87.7503 37.3802C86.8903 37.3402 86.0003 37.0802 85.7903 36.1902C85.4103 34.5502 84.9803 32.8902 84.9303 31.2302C84.8403 27.9702 84.9303 24.6902 85.1003 21.4302C85.1603 20.2902 85.5603 19.1402 85.9903 18.0502C86.4003 17.0102 87.2403 16.6402 88.3103 16.7402C89.2703 16.8302 90.0503 17.3802 90.2003 18.4702C90.5103 20.6202 90.6703 22.7902 90.8703 24.9602C90.9203 25.5602 90.8703 26.1602 90.8703 26.7602C90.9503 26.7602 91.0203 26.7702 91.1003 26.7802C90.8103 29.4602 90.5503 32.1402 90.2103 34.8102V34.8002Z" fill="#343A40"/>
<path d="M73.4105 11.98C72.1805 11.73 70.8505 11.75 69.5805 11.87C66.3105 12.18 63.7305 13.65 62.3705 16.57C61.6105 18.2 61.0505 19.94 60.7005 21.69C59.9905 25.19 60.0705 28.76 60.3905 32.3C60.5505 34.03 60.9005 35.76 61.4005 37.43C62.1805 40.06 63.9305 41.85 66.9205 42.11C68.6705 42.26 70.4605 42.24 72.2105 42.08C73.1405 42 74.0905 41.58 74.9005 41.1C75.4305 40.79 75.9405 40.17 76.0905 39.6C76.4005 38.45 76.0105 37.3 75.6805 36.2C74.7405 36.45 73.9005 36.73 73.0505 36.9C69.6905 37.57 67.7405 36.39 67.2105 33.18C66.9305 31.46 66.8805 29.71 66.8405 27.96C66.7905 25.34 66.8405 22.72 67.7105 20.19C68.6405 17.52 70.0105 16.75 73.0905 17.12C73.9605 17.22 74.8105 17.5 75.8405 17.74C76.0005 17.06 76.1505 16.44 76.2905 15.8C76.7605 13.65 75.7705 12.45 73.4105 11.96V11.98Z" fill="#343A40"/>
<path d="M231.561 39.9503C229.351 35.5503 227.151 31.1503 224.931 26.7603C224.811 26.5303 224.761 26.3302 224.751 26.1202C230.661 14.5202 237.791 0.520244 237.791 0.520244H231.981C231.981 0.520244 230.871 0.410251 230.481 1.09025C230.291 1.41025 225.431 10.7803 220.411 20.4403C219.351 17.9403 218.291 15.4403 217.211 12.9503C217.101 12.7003 216.791 12.3403 216.571 12.3403C214.601 12.3403 212.621 12.4003 210.651 12.5003C210.491 12.5003 210.251 12.9303 210.251 13.1603C210.251 13.4303 210.471 13.7103 210.611 13.9803C212.581 17.8803 214.551 21.7902 216.551 25.6802C216.851 26.2702 216.881 26.7403 216.571 27.3603C214.261 31.8703 212.001 36.3903 209.731 40.9103C209.601 41.1703 209.491 41.4403 209.311 41.8503H215.251C215.251 41.8503 216.701 41.8803 216.991 41.3503C217.071 41.2003 218.691 38.0302 220.991 33.5202C222.151 36.0502 223.311 38.5703 224.491 41.0703C224.631 41.3603 225.001 41.7403 225.271 41.7503C227.271 41.7503 229.271 41.6803 231.281 41.6303C231.971 41.6103 232.111 41.2403 231.941 40.7003C231.861 40.4403 231.711 40.2003 231.591 39.9503H231.561Z" fill="#343A40"/>
<path d="M175.841 17.3803C176.931 17.4103 178.021 17.3903 179.101 17.3803C180.141 17.3803 180.441 17.1403 180.511 16.1503C180.581 15.0903 180.521 14.0203 180.571 12.9603C180.601 12.4003 180.371 12.2603 179.821 12.2703C178.591 12.3003 177.361 12.2303 176.131 12.3003C175.331 12.3403 175.111 12.0903 175.121 11.3403C175.161 8.39028 175.12 5.45028 175.15 2.50028C175.15 1.88028 174.991 1.60029 174.281 1.66029C173.171 1.75029 172.041 1.72029 170.941 1.85029C169.231 2.04029 168.851 2.45028 168.881 3.94028C168.921 6.42028 168.861 8.9103 168.911 11.3903C168.921 12.1203 168.911 17.6403 168.911 18.3603C168.881 23.2403 168.861 28.1303 168.911 33.0103C168.931 34.7503 169.08 36.4903 169.27 38.2203C169.49 40.1903 170.78 41.7203 172.83 42.0303C174.43 42.2803 176.121 42.1403 177.761 42.0303C178.381 41.9903 179.051 41.6703 179.541 41.2903C179.991 40.9403 180.471 40.3603 180.511 39.8503C180.601 38.7603 180.411 37.6503 180.341 36.6003C179.221 36.8303 178.29 37.1103 177.33 37.2003C175.91 37.3303 175.261 36.7903 175.251 35.4503C175.191 29.6403 175.19 23.8303 175.15 18.0203C175.15 17.5303 175.331 17.3403 175.851 17.3603L175.841 17.3803Z" fill="#343A40"/>
<path d="M194.961 11.9702C194.511 11.8802 194.061 11.8102 193.601 11.7702C190.451 11.5202 187.631 12.4602 184.941 13.9302C184.401 14.2302 184.191 14.5302 184.201 15.1302C184.221 23.7002 184.211 32.2702 184.211 40.8402V41.7002C185.891 41.7002 187.461 41.7702 189.031 41.6802C190.571 41.5902 190.611 41.4702 190.621 39.9702C190.641 33.1202 190.681 26.2702 190.661 19.4202C190.661 18.5702 191.031 18.2002 191.751 17.9102C193.231 17.3002 194.701 17.4402 196.161 17.8902C196.811 16.8602 197.091 14.7002 196.791 13.5802C196.541 12.6502 195.911 12.1402 194.961 11.9602V11.9702Z" fill="#343A40"/>
<path d="M205.561 12.3005C204.681 12.3605 203.781 12.3405 202.901 12.4305C200.201 12.7105 199.961 12.9805 199.961 15.5905C199.961 24.0005 199.961 32.4105 199.961 40.8105V41.7205C200.211 41.7505 200.291 41.7805 200.381 41.7805C201.701 41.7805 203.021 41.7905 204.331 41.7805C206.111 41.7605 206.361 41.5205 206.361 39.8305C206.361 32.2405 206.361 24.6505 206.361 17.0605C206.361 15.7205 206.341 14.3805 206.361 13.0505C206.371 12.4805 206.151 12.2605 205.551 12.3005H205.561Z" fill="#343A40"/>
<path d="M203.98 0.540473C202.79 0.460473 201.67 0.570453 200.9 1.27045C200.1 1.99045 199.91 2.84047 199.97 3.72047C199.99 4.07047 199.99 4.43046 200.05 4.78046C200.23 5.82046 201.07 6.50047 202.42 6.69047C203.68 6.87047 205.04 6.49048 205.63 5.70048C206.63 4.36048 206.61 2.95046 206.02 1.53046C205.75 0.870463 204.93 0.600473 203.98 0.540473Z" fill="#40D04F"/>
<defs>
<linearGradient id="paint0_linear_0_1" x1="38.0303" y1="9.67958" x2="21.1503" y2="24.2896" gradientUnits="userSpaceOnUse">
<stop offset="0.22" stop-color="#40D04F"/>
<stop offset="0.67" stop-color="#006838"/>
</linearGradient>
</defs>
</svg>
